<svg width="1195" height="327" viewBox="0 0 1195 327" fill="none" xmlns="http://www.w3.org/2000/svg">
<g clip-path="url(#clip0_387_2833)">
<rect x="0.5" y="0.5" width="1194" height="326" fill="white" stroke="#F0F0F0"/>
<path d="M1157 107L1188.5 62L1220.5 107" stroke="#F0F0F0" stroke-width="12"/>
<path d="M1071 144L1102.5 99L1134.5 144" stroke="#F0F0F0" stroke-width="12"/>
<path d="M1071 219L1102.5 174L1134.5 219" stroke="#F0F0F0" stroke-width="12"/>
<path d="M1157 219L1188.5 174L1220.5 219" stroke="#F0F0F0" stroke-width="12"/>
<path d="M986 255L1017.5 210L1049.5 255" stroke="#F0F0F0" stroke-width="12"/>
<path d="M898 294L929.5 249L961.5 294" stroke="#F0F0F0" stroke-width="12"/>
<path d="M1071 294L1102.5 249L1134.5 294" stroke="#F0F0F0" stroke-width="12"/>
<path d="M1157 333L1188.5 288L1220.5 333" stroke="#F0F0F0" stroke-width="12"/>
<path d="M986 113L1017.5 68L1049.5 113" stroke="#F0F0F0" stroke-width="12"/>
<path d="M811.153 170.233C812.487 169.128 813.154 167.676 813.154 165.345V122.127H837.06V167.252C837.06 176.346 835.619 179.555 830.162 183.882C823.72 188.876 813.821 193.083 798.692 193.083C783.563 193.083 773.68 188.861 767.222 183.882C761.78 179.555 760.325 176.346 760.325 167.252V122.127H784.23V165.375C784.23 167.706 784.897 169.143 786.231 170.263C789.127 172.473 792.901 174.364 798.677 174.364C804.453 174.364 808.242 172.473 811.123 170.263H811.138L811.153 170.233Z" fill="#1C4235"/>
<path d="M884.584 122.615C897.862 122.615 906.432 125.698 912.315 130.815L912.318 130.818C915.019 133.125 916.534 134.946 917.396 137.26C918.268 139.595 918.495 142.483 918.495 146.978V153.409C918.495 157.904 918.267 160.791 917.396 163.127C916.534 165.44 915.019 167.262 912.318 169.568L912.315 169.571C906.416 174.689 897.861 177.771 884.584 177.771H869.273V190.997H846.322V122.615H884.584ZM869.773 139.865H869.273V161.021H881.688C887.101 161.021 890.573 159.777 892.914 157.917L892.921 157.911C893.893 157.111 894.576 156.383 894.995 155.387C895.408 154.404 895.544 153.212 895.544 151.532V148.869C895.544 147.188 895.404 145.993 894.989 145.009C894.568 144.011 893.886 143.283 892.92 142.49L892.914 142.485L892.462 142.144C890.133 140.474 886.777 139.381 881.688 139.381H869.773V139.865Z" fill="#1C4235" stroke="#1C4235"/>
<path d="M968.246 121.611C976.278 121.611 984.724 122.354 991.5 123.73V141.585C983.845 140.3 975.106 139.346 968.579 139.346C960.773 139.346 956.045 141.021 953.115 143.219L952.84 143.431C951.797 144.243 951.071 145.077 950.611 146.05C950.153 147.022 949.979 148.093 949.979 149.349V164.284C949.979 165.547 950.153 166.622 950.611 167.594C951.071 168.568 951.798 169.398 952.842 170.203C955.734 172.504 960.511 174.287 968.579 174.287C975.106 174.287 983.845 173.331 991.5 172.047V189.856C984.724 191.233 976.278 191.976 968.246 191.976C952.221 191.976 940.781 187.22 934.103 182.364L933.471 181.895C930.734 179.766 929.175 177.98 928.278 175.693C927.372 173.383 927.119 170.508 927.119 166.146V147.441C927.119 143.071 927.372 140.197 928.278 137.889C929.176 135.603 930.735 133.82 933.475 131.69L933.474 131.689C940.035 126.662 951.705 121.611 968.246 121.611Z" fill="#1C4235" stroke="#1C4235"/>
<path d="M764.509 215.358C765.282 215.358 765.889 215.086 766.343 214.571C766.798 214.057 767.025 213.33 767.025 212.437V206.975H768.708V212.498C768.708 213.905 768.329 214.98 767.556 215.767C766.783 216.553 765.782 216.932 764.524 216.932C763.266 216.932 762.25 216.538 761.492 215.767C760.719 214.995 760.34 213.89 760.34 212.498V206.975H762.008V212.437C762.008 213.345 762.235 214.057 762.69 214.571C763.13 215.101 763.751 215.358 764.524 215.358H764.509Z" fill="#1C4235"/>
<path d="M772.664 209.458C772.664 209.866 772.816 210.169 773.119 210.366C773.437 210.593 774.089 210.82 775.105 211.077C776.166 211.334 776.954 211.682 777.439 212.121C777.924 212.56 778.182 213.195 778.182 214.043C778.182 214.89 777.864 215.617 777.197 216.161C776.545 216.706 775.696 216.963 774.635 216.963C773.119 216.963 771.74 216.419 770.512 215.344L771.558 214.088C772.573 214.966 773.619 215.405 774.68 215.405C775.211 215.405 775.635 215.284 775.954 215.057C776.272 214.815 776.439 214.512 776.439 214.134C776.439 213.755 776.287 213.453 775.999 213.241C775.711 213.029 775.196 212.832 774.453 212.651C773.18 212.363 772.285 212 771.785 211.607C771.209 211.168 770.921 210.487 770.921 209.564C770.921 208.641 771.239 207.975 771.891 207.475C772.543 206.976 773.362 206.719 774.377 206.719C775.742 206.719 776.909 207.127 777.879 207.899L776.985 209.155C776.697 208.898 776.287 208.671 775.802 208.504C775.302 208.338 774.817 208.247 774.332 208.247C773.847 208.247 773.422 208.353 773.134 208.565C772.831 208.777 772.679 209.064 772.679 209.443L772.664 209.458Z" fill="#1C4235"/>
<path d="M780.244 206.975H781.926V216.841H780.244V206.975Z" fill="#1C4235"/>
<path d="M792.083 206.975H793.75V216.841H791.946L786.337 209.638V216.841H784.655V206.975H786.337L792.083 214.329V206.975Z" fill="#1C4235"/>
<path d="M797.888 214.601L796.903 216.841H795.129L799.495 206.975H801.269L805.619 216.841H803.846L802.86 214.601H797.903H797.888ZM802.178 213.043L800.374 208.987L798.57 213.043H802.163H802.178Z" fill="#1C4235"/>
<path d="M814.276 206.975C815.762 206.975 816.853 207.262 817.535 207.837C818.217 208.412 818.581 209.29 818.581 210.485C818.581 211.681 818.232 212.543 817.535 213.103C816.838 213.663 815.762 213.936 814.306 213.936H812.563V216.841H810.88V206.975H814.276ZM814.473 212.422C815.367 212.422 815.989 212.256 816.338 211.923C816.686 211.59 816.868 211.06 816.868 210.319C816.868 209.638 816.656 209.169 816.247 208.881C815.822 208.594 815.155 208.458 814.215 208.458H812.533V212.407H814.473V212.422Z" fill="#1C4235"/>
<path d="M825.129 216.93C823.644 216.93 822.401 216.446 821.4 215.478C820.4 214.509 819.899 213.298 819.899 211.846C819.899 210.393 820.4 209.182 821.4 208.199C822.385 207.23 823.644 206.746 825.129 206.746C826.615 206.746 827.858 207.23 828.858 208.199C829.859 209.182 830.359 210.378 830.359 211.846C830.359 213.314 829.859 214.509 828.843 215.478C827.828 216.461 826.6 216.945 825.144 216.945L825.129 216.93ZM825.129 208.229C824.144 208.229 823.31 208.577 822.643 209.273C821.976 209.969 821.628 210.817 821.628 211.815C821.628 212.814 821.961 213.662 822.643 214.343C823.325 215.024 824.144 215.387 825.129 215.387C826.115 215.387 826.948 215.039 827.615 214.343C828.297 213.646 828.631 212.799 828.631 211.815C828.631 210.832 828.297 209.969 827.615 209.273C826.933 208.577 826.115 208.229 825.129 208.229Z" fill="#1C4235"/>
<path d="M835.862 206.975C837.348 206.975 838.439 207.262 839.121 207.837C839.803 208.412 840.167 209.29 840.167 210.485C840.167 211.681 839.818 212.543 839.121 213.103C838.424 213.663 837.348 213.936 835.892 213.936H834.149V216.841H832.466V206.975H835.862ZM836.059 212.422C836.953 212.422 837.575 212.256 837.924 211.923C838.272 211.59 838.454 211.06 838.454 210.319C838.454 209.638 838.242 209.169 837.833 208.881C837.408 208.594 836.741 208.458 835.801 208.458H834.119V212.407H836.059V212.422Z" fill="#1C4235"/>
<path d="M846.216 215.358C846.989 215.358 847.595 215.086 848.05 214.571C848.505 214.057 848.732 213.33 848.732 212.437V206.975H850.415V212.498C850.415 213.905 850.036 214.98 849.263 215.767C848.489 216.553 847.489 216.932 846.231 216.932C844.973 216.932 843.957 216.538 843.199 215.767C842.426 214.995 842.047 213.89 842.047 212.498V206.975H843.714V212.437C843.714 213.345 843.942 214.057 844.397 214.571C844.836 215.101 845.458 215.358 846.231 215.358H846.216Z" fill="#1C4235"/>
<path d="M853.037 216.825V206.959H854.719V215.252H859.237V216.825H853.052H853.037Z" fill="#1C4235"/>
<path d="M862.436 214.601L861.451 216.841H859.677L864.043 206.975H865.817L870.167 216.841H868.394L867.408 214.601H862.451H862.436ZM866.726 213.043L864.922 208.987L863.118 213.043H866.711H866.726Z" fill="#1C4235"/>
<path d="M875.23 207.459C876.697 207.459 877.636 207.715 878.155 208.112C878.642 208.486 878.944 209.128 878.944 210.167C878.944 210.905 878.782 211.46 878.5 211.867C878.231 212.257 877.823 212.552 877.24 212.739H876.329L876.902 213.532L878.92 216.325H878.035L875.82 213.207L875.67 212.996H872.729V216.325H872.046V207.459H875.23ZM872.729 212.514H875.291C876.238 212.514 877.038 212.384 877.534 211.976C878.04 211.558 878.247 210.916 878.247 210.152C878.247 209.39 878.038 208.774 877.488 208.416C877.233 208.243 876.913 208.14 876.57 208.078C876.216 208.014 875.8 207.987 875.336 207.987H872.729V212.514Z" fill="#1C4235" stroke="#1C4235"/>
<path d="M890.434 207.246C891.664 207.246 892.678 207.651 893.561 208.459L893.173 208.886C892.807 208.577 892.442 208.337 892.071 208.178C891.573 207.965 891.019 207.865 890.404 207.865C889.277 207.865 888.298 208.221 887.527 208.972C886.738 209.724 886.357 210.676 886.357 211.801C886.357 212.927 886.74 213.873 887.519 214.651C888.287 215.418 889.2 215.826 890.283 215.826C890.91 215.826 891.452 215.726 891.955 215.495L891.956 215.496C892.31 215.339 892.668 215.1 893.034 214.804L893.421 215.196C892.559 216.031 891.527 216.445 890.313 216.445C888.916 216.445 887.816 216.004 886.931 215.148C886.05 214.296 885.598 213.203 885.598 211.876C885.598 210.548 886.051 209.427 886.959 208.561C887.873 207.689 889.019 207.246 890.434 207.246Z" fill="#1C4235" stroke="#1C4235"/>
<path d="M900.727 207.246C902.091 207.246 903.206 207.685 904.106 208.555V208.556C905.008 209.443 905.458 210.508 905.458 211.846C905.458 213.183 905.008 214.246 904.096 215.115L904.093 215.118C903.221 215.962 902.185 216.398 900.944 216.44L900.934 216.431H900.727C899.362 216.431 898.247 215.99 897.346 215.118C896.448 214.248 895.998 213.17 895.998 211.846C895.998 210.523 896.447 209.442 897.349 208.556C898.232 207.688 899.36 207.246 900.727 207.246ZM900.727 207.729C899.61 207.73 898.645 208.13 897.88 208.928C897.125 209.717 896.726 210.687 896.726 211.815C896.726 212.938 897.106 213.915 897.888 214.696C898.659 215.465 899.602 215.887 900.727 215.887C901.844 215.887 902.81 215.486 903.575 214.688L903.574 214.688C904.348 213.895 904.729 212.923 904.729 211.815C904.729 210.709 904.35 209.718 903.571 208.923C902.795 208.131 901.847 207.729 900.727 207.729Z" fill="#1C4235" stroke="#1C4235"/>
<path d="M912.627 207.246C913.991 207.246 915.106 207.685 916.006 208.555V208.556C916.909 209.443 917.358 210.508 917.358 211.846C917.358 213.183 916.909 214.246 915.997 215.115L915.994 215.118C915.122 215.962 914.085 216.398 912.844 216.44L912.834 216.431H912.627C911.262 216.431 910.147 215.99 909.247 215.118C908.348 214.248 907.898 213.17 907.898 211.846C907.898 210.523 908.348 209.442 909.25 208.556C910.132 207.688 911.26 207.246 912.627 207.246ZM912.627 207.729C911.511 207.73 910.545 208.13 909.781 208.928C909.025 209.717 908.626 210.687 908.626 211.815C908.626 212.938 909.006 213.915 909.789 214.696C910.559 215.465 911.502 215.887 912.627 215.887C913.744 215.887 914.711 215.486 915.475 214.688L915.474 214.688C916.249 213.895 916.629 212.923 916.629 211.815C916.629 210.709 916.25 209.718 915.471 208.923C914.696 208.131 913.748 207.729 912.627 207.729Z" fill="#1C4235" stroke="#1C4235"/>
<path d="M923.36 207.475C924.801 207.475 925.749 207.757 926.298 208.22C926.838 208.675 927.166 209.395 927.166 210.485C927.166 211.581 926.85 212.276 926.307 212.713C925.74 213.168 924.801 213.436 923.391 213.436H921.147V216.341H920.465V207.475H923.36ZM921.102 212.907H923.336L923.351 212.922H923.558C924.482 212.922 925.273 212.756 925.768 212.284C926.254 211.82 926.453 211.132 926.453 210.319C926.453 209.528 926.198 208.876 925.597 208.468C925.044 208.093 924.25 207.958 923.285 207.958H921.102V212.907Z" fill="#1C4235" stroke="#1C4235"/>
<path d="M936.109 207.475V208.019H930.834V211.651H935.563V212.119H930.834V215.768H936.276V216.341H930.151V207.475H936.109Z" fill="#1C4235" stroke="#1C4235"/>
<path d="M942.597 207.459C944.064 207.459 945.003 207.715 945.521 208.112C946.009 208.486 946.311 209.128 946.311 210.167C946.311 210.905 946.149 211.46 945.867 211.867C945.598 212.257 945.19 212.552 944.606 212.739H943.695L944.269 213.532L946.287 216.325H945.401L943.187 213.207L943.037 212.996H940.096V216.325H939.413V207.459H942.597ZM940.081 212.514H942.643C943.59 212.514 944.39 212.385 944.886 211.976C945.392 211.558 945.598 210.916 945.598 210.152C945.598 209.39 945.39 208.774 944.84 208.416H944.839C944.584 208.243 944.264 208.14 943.921 208.078C943.567 208.014 943.152 207.987 942.688 207.987H940.081V212.514Z" fill="#1C4235" stroke="#1C4235"/>
<path d="M953.669 207.475L957.58 216.341H956.899L956.045 214.4L955.915 214.102H950.29L950.158 214.4L949.305 216.341H948.625L952.548 207.475H953.669ZM952.645 208.784L950.841 212.84L950.529 213.543H955.675L955.363 212.84L953.559 208.784L953.102 207.757L952.645 208.784Z" fill="#1C4235" stroke="#1C4235"/>
<path d="M965.942 207.459V207.973H963.44V208.473H962.956V216.325H962.273V207.973H959.271V207.459H965.942Z" fill="#1C4235" stroke="#1C4235"/>
<path d="M969.459 207.475V216.341H968.776V207.475H969.459Z" fill="#1C4235" stroke="#1C4235"/>
<path d="M972.899 207.459L975.803 214.504L976.263 215.62L976.727 214.506L979.662 207.459H980.451L976.868 216.325H975.678L972.095 207.459H972.899Z" fill="#1C4235" stroke="#1C4235"/>
<path d="M987.065 207.475L990.975 216.341H990.294L989.441 214.4L989.309 214.102H983.669L983.539 214.4L982.685 216.341H982.006L985.943 207.475H987.065ZM986.025 208.784L984.221 212.84L983.909 213.543H989.055L988.743 212.84L986.939 208.784L986.482 207.757L986.025 208.784Z" fill="#1C4235" stroke="#1C4235"/>
<path d="M744.681 205.856C743.756 206.264 742.073 207.021 739.875 207.944C738.39 208.595 736.571 209.246 734.57 210.032C731.311 211.243 727.354 212.454 723.216 213.604C716.773 215.208 709.557 216.494 702.054 216.66C701.417 216.66 701.053 217.372 701.432 217.901L703.054 220.111C703.191 220.307 703.327 220.534 703.327 220.943C703.327 221.7 702.721 222.335 701.887 222.335H689.836C688.456 222.335 688.092 220.444 689.366 219.914C694.186 217.871 698.597 214.89 702.357 211.077C710.058 203.389 714.469 192.781 714.469 181.977C714.469 164.257 695.914 142.829 682.377 127.182L682.256 127.046C680.937 125.472 679.649 123.974 678.421 122.552C678.254 122.355 678.239 122.068 678.39 121.856L694.868 99.1873C695.065 98.9301 695.414 98.9452 695.566 99.1873L731.735 148.822C731.887 149.049 731.856 149.472 731.538 149.654C730.098 150.305 726.369 151.969 721.442 153.331C721.275 153.377 721.109 153.422 721.109 153.422C720.533 153.619 720.32 154.345 720.32 154.633C720.32 154.829 720.366 155.556 721.215 155.979C722.837 156.721 724.277 157.841 725.353 159.324C725.671 159.657 742.286 182.522 742.286 182.522C742.483 182.749 742.392 183.142 742.058 183.309C740.861 184.035 735.085 186.259 731.765 187.077C731.22 187.258 730.886 187.894 730.886 188.333C730.886 188.771 731.113 189.362 731.765 189.679C733.357 190.421 734.555 191.253 735.722 192.6C735.722 192.6 743.119 202.739 744.802 205.008C745.029 205.341 744.999 205.689 744.666 205.856H744.681Z" fill="#1C4235"/>
<path d="M695.55 155.827C693.959 153.572 692.291 151.317 690.563 149.108C685.925 143.115 680.922 137.335 676.48 132.205L676.299 131.993C675.328 130.843 674.373 129.723 673.433 128.634C673.297 128.467 673.039 128.482 672.918 128.664L658.229 148.82C658.077 149.047 658.108 149.471 658.426 149.652C659.866 150.303 663.58 151.968 668.522 153.33C668.689 153.36 668.855 153.42 668.855 153.42C669.432 153.617 669.644 154.328 669.644 154.631C669.644 154.828 669.613 155.554 668.765 155.978C667.142 156.719 665.687 157.839 664.626 159.322C664.293 159.655 647.678 182.505 647.678 182.505C647.481 182.732 647.572 183.141 647.906 183.292C649.118 184.018 654.879 186.243 658.199 187.06C658.729 187.241 659.078 187.877 659.078 188.316C659.078 188.755 658.851 189.345 658.199 189.663C656.607 190.419 655.394 191.252 654.227 192.598C654.227 192.598 649.588 198.939 646.814 202.722C646.102 203.721 645.495 204.523 645.147 205.007C644.919 205.34 644.95 205.688 645.283 205.839C646.208 206.263 647.891 207.004 650.089 207.928C651.256 208.442 652.62 208.957 654.121 209.532C654.53 209.683 654.955 209.864 655.394 210.031C658.669 211.242 662.61 212.437 666.764 213.602C669.386 214.253 672.145 214.858 674.98 215.342C675.177 215.373 675.374 215.388 675.571 215.373C681.21 214.979 686.531 213.209 691.17 210.228C693.201 208.926 695.096 207.383 696.824 205.643C697.021 205.446 697.203 205.264 697.37 205.067C703.297 198.848 706.692 190.495 706.692 181.975C706.692 174.212 701.917 164.982 695.535 155.842L695.55 155.827Z" fill="#FCD90D"/>
</g>
<defs>
<clipPath id="clip0_387_2833">
<rect width="1195" height="327" fill="white"/>
</clipPath>
</defs>
</svg>
