<svg width="1195" height="327" viewBox="0 0 1195 327" fill="none" xmlns="http://www.w3.org/2000/svg">
<g clip-path="url(#clip0_377_2702)">
<rect width="1195" height="327" fill="#1C4235"/>
<path d="M1157 107L1188.5 62L1220.5 107" stroke="#235846" stroke-width="12"/>
<path d="M1071 144L1102.5 99L1134.5 144" stroke="#235846" stroke-width="12"/>
<path d="M1071 219L1102.5 174L1134.5 219" stroke="#235846" stroke-width="12"/>
<path d="M1157 219L1188.5 174L1220.5 219" stroke="#235846" stroke-width="12"/>
<path d="M986 255L1017.5 210L1049.5 255" stroke="#235846" stroke-width="12"/>
<path d="M898 294L929.5 249L961.5 294" stroke="#235846" stroke-width="12"/>
<path d="M1071 294L1102.5 249L1134.5 294" stroke="#235846" stroke-width="12"/>
<path d="M1157 333L1188.5 288L1220.5 333" stroke="#235846" stroke-width="12"/>
<path d="M986 113L1017.5 68L1049.5 113" stroke="#235846" stroke-width="12"/>
<path d="M811.153 170.233C812.487 169.128 813.154 167.676 813.154 165.345V122.127H837.06V167.252C837.06 176.346 835.619 179.555 830.162 183.882C823.72 188.876 813.821 193.083 798.692 193.083C783.563 193.083 773.68 188.861 767.222 183.882C761.78 179.555 760.325 176.346 760.325 167.252V122.127H784.23V165.375C784.23 167.706 784.897 169.143 786.231 170.263C789.127 172.473 792.901 174.364 798.677 174.364C804.453 174.364 808.242 172.473 811.123 170.263H811.138L811.153 170.233Z" fill="white"/>
<path d="M869.773 178.287V191.497H845.822V122.115H884.584C897.939 122.115 906.64 125.217 912.643 130.438C918.1 135.099 918.995 137.989 918.995 146.978V153.409C918.995 162.398 918.1 165.288 912.643 169.949C906.625 175.17 897.939 178.272 884.584 178.272H869.773V178.287ZM869.773 139.866V160.521H881.688C887.024 160.521 890.375 159.296 892.603 157.525C894.498 155.966 895.044 154.862 895.044 151.533V148.869C895.044 145.54 894.483 144.42 892.603 142.877C890.375 141.106 887.04 139.881 881.688 139.881H869.773V139.866Z" fill="white"/>
<path d="M992 142.176C984.223 140.844 975.234 139.845 968.579 139.845C960.59 139.845 955.937 141.616 953.147 143.825C951.146 145.384 950.479 146.927 950.479 149.348V164.284C950.479 166.72 951.146 168.264 953.147 169.808C955.922 172.017 960.575 173.787 968.579 173.787C975.234 173.787 984.223 172.789 992 171.457V190.267C985.118 191.704 976.462 192.476 968.246 192.476C951.601 192.476 939.838 187.376 933.168 182.292C927.62 177.979 926.619 174.877 926.619 166.145V147.442C926.619 138.695 927.62 135.608 933.168 131.295C939.823 126.196 951.601 121.111 968.246 121.111C976.462 121.111 985.118 121.883 992 123.321V142.13V142.176Z" fill="white"/>
<path d="M764.509 215.358C765.282 215.358 765.889 215.086 766.343 214.571C766.798 214.057 767.025 213.33 767.025 212.437V206.975H768.708V212.498C768.708 213.905 768.329 214.98 767.556 215.767C766.783 216.553 765.782 216.932 764.524 216.932C763.266 216.932 762.25 216.538 761.492 215.767C760.719 214.995 760.34 213.89 760.34 212.498V206.975H762.008V212.437C762.008 213.345 762.235 214.057 762.69 214.571C763.13 215.101 763.751 215.358 764.524 215.358H764.509Z" fill="white"/>
<path d="M772.664 209.458C772.664 209.866 772.816 210.169 773.119 210.366C773.437 210.593 774.089 210.82 775.105 211.077C776.166 211.334 776.954 211.682 777.439 212.121C777.924 212.56 778.182 213.195 778.182 214.043C778.182 214.89 777.864 215.617 777.197 216.161C776.545 216.706 775.696 216.963 774.635 216.963C773.119 216.963 771.74 216.419 770.512 215.344L771.558 214.088C772.573 214.966 773.619 215.405 774.68 215.405C775.211 215.405 775.635 215.284 775.954 215.057C776.272 214.815 776.439 214.512 776.439 214.134C776.439 213.755 776.287 213.453 775.999 213.241C775.711 213.029 775.196 212.832 774.453 212.651C773.18 212.363 772.285 212 771.785 211.607C771.209 211.168 770.921 210.487 770.921 209.564C770.921 208.641 771.239 207.975 771.891 207.475C772.543 206.976 773.362 206.719 774.377 206.719C775.742 206.719 776.909 207.127 777.879 207.899L776.985 209.155C776.697 208.898 776.287 208.671 775.802 208.504C775.302 208.338 774.817 208.247 774.332 208.247C773.847 208.247 773.422 208.353 773.134 208.565C772.831 208.777 772.679 209.064 772.679 209.443L772.664 209.458Z" fill="white"/>
<path d="M780.244 206.975H781.926V216.841H780.244V206.975Z" fill="white"/>
<path d="M792.083 206.975H793.75V216.841H791.946L786.337 209.638V216.841H784.655V206.975H786.337L792.083 214.329V206.975Z" fill="white"/>
<path d="M797.888 214.601L796.903 216.841H795.129L799.495 206.975H801.269L805.619 216.841H803.846L802.86 214.601H797.903H797.888ZM802.178 213.043L800.374 208.987L798.57 213.043H802.163H802.178Z" fill="white"/>
<path d="M814.276 206.975C815.762 206.975 816.853 207.262 817.535 207.837C818.217 208.412 818.581 209.29 818.581 210.485C818.581 211.681 818.232 212.543 817.535 213.103C816.838 213.663 815.762 213.936 814.306 213.936H812.563V216.841H810.88V206.975H814.276ZM814.473 212.422C815.367 212.422 815.989 212.256 816.338 211.923C816.686 211.59 816.868 211.06 816.868 210.319C816.868 209.638 816.656 209.169 816.247 208.881C815.822 208.594 815.155 208.458 814.215 208.458H812.533V212.407H814.473V212.422Z" fill="white"/>
<path d="M825.129 216.93C823.644 216.93 822.401 216.446 821.4 215.478C820.4 214.509 819.899 213.298 819.899 211.846C819.899 210.393 820.4 209.182 821.4 208.199C822.385 207.23 823.644 206.746 825.129 206.746C826.615 206.746 827.858 207.23 828.858 208.199C829.859 209.182 830.359 210.378 830.359 211.846C830.359 213.314 829.859 214.509 828.843 215.478C827.828 216.461 826.6 216.945 825.144 216.945L825.129 216.93ZM825.129 208.229C824.144 208.229 823.31 208.577 822.643 209.273C821.976 209.969 821.628 210.817 821.628 211.815C821.628 212.814 821.961 213.662 822.643 214.343C823.325 215.024 824.144 215.387 825.129 215.387C826.115 215.387 826.948 215.039 827.615 214.343C828.297 213.646 828.631 212.799 828.631 211.815C828.631 210.832 828.297 209.969 827.615 209.273C826.933 208.577 826.115 208.229 825.129 208.229Z" fill="white"/>
<path d="M835.862 206.975C837.348 206.975 838.439 207.262 839.121 207.837C839.803 208.412 840.167 209.29 840.167 210.485C840.167 211.681 839.818 212.543 839.121 213.103C838.424 213.663 837.348 213.936 835.892 213.936H834.149V216.841H832.466V206.975H835.862ZM836.059 212.422C836.953 212.422 837.575 212.256 837.924 211.923C838.272 211.59 838.454 211.06 838.454 210.319C838.454 209.638 838.242 209.169 837.833 208.881C837.408 208.594 836.741 208.458 835.801 208.458H834.119V212.407H836.059V212.422Z" fill="white"/>
<path d="M846.216 215.358C846.989 215.358 847.595 215.086 848.05 214.571C848.505 214.057 848.732 213.33 848.732 212.437V206.975H850.415V212.498C850.415 213.905 850.036 214.98 849.263 215.767C848.489 216.553 847.489 216.932 846.231 216.932C844.973 216.932 843.957 216.538 843.199 215.767C842.426 214.995 842.047 213.89 842.047 212.498V206.975H843.714V212.437C843.714 213.345 843.942 214.057 844.397 214.571C844.836 215.101 845.458 215.358 846.231 215.358H846.216Z" fill="white"/>
<path d="M853.037 216.825V206.959H854.719V215.252H859.237V216.825H853.052H853.037Z" fill="white"/>
<path d="M862.436 214.601L861.451 216.841H859.677L864.043 206.975H865.817L870.167 216.841H868.394L867.408 214.601H862.451H862.436ZM866.726 213.043L864.922 208.987L863.118 213.043H866.711H866.726Z" fill="white"/>
<path d="M877.307 213.239L879.899 216.825H877.777L875.412 213.496H873.229V216.825H871.546V206.959H875.23C876.731 206.959 877.807 207.216 878.459 207.716C879.111 208.215 879.444 209.032 879.444 210.167C879.444 211.786 878.732 212.815 877.322 213.239H877.307ZM875.291 212.013C876.231 212.013 876.867 211.877 877.216 211.59C877.565 211.302 877.746 210.833 877.746 210.152C877.746 209.471 877.565 209.062 877.216 208.835C876.867 208.593 876.231 208.487 875.336 208.487H873.229V212.013H875.291Z" fill="white"/>
<path d="M893.041 214.1L894.118 215.19C893.102 216.355 891.829 216.945 890.313 216.945C888.797 216.945 887.569 216.461 886.584 215.508C885.598 214.554 885.098 213.329 885.098 211.876C885.098 210.423 885.598 209.167 886.614 208.199C887.63 207.23 888.903 206.746 890.434 206.746C891.965 206.746 893.208 207.321 894.254 208.441L893.208 209.591C892.738 209.137 892.299 208.819 891.874 208.638C891.45 208.456 890.965 208.365 890.404 208.365C889.388 208.365 888.539 208.683 887.872 209.334C887.19 209.984 886.857 210.802 886.857 211.8C886.857 212.799 887.19 213.616 887.872 214.297C888.554 214.978 889.343 215.326 890.283 215.326C890.859 215.326 891.328 215.235 891.753 215.039C892.162 214.857 892.602 214.539 893.087 214.1H893.041Z" fill="white"/>
<path d="M900.727 216.93C899.242 216.93 897.999 216.446 896.998 215.478C895.998 214.509 895.498 213.298 895.498 211.846C895.498 210.393 895.998 209.182 896.998 208.199C897.984 207.23 899.242 206.746 900.727 206.746C902.213 206.746 903.456 207.23 904.457 208.199C905.457 209.182 905.957 210.378 905.957 211.846C905.957 213.314 905.457 214.509 904.441 215.478C903.426 216.461 902.198 216.945 900.743 216.945L900.727 216.93ZM900.727 208.229C899.742 208.229 898.908 208.577 898.241 209.273C897.574 209.969 897.226 210.817 897.226 211.815C897.226 212.814 897.559 213.662 898.241 214.343C898.923 215.024 899.742 215.387 900.727 215.387C901.713 215.387 902.547 215.039 903.214 214.343C903.896 213.646 904.229 212.799 904.229 211.815C904.229 210.832 903.896 209.969 903.214 209.273C902.531 208.577 901.713 208.229 900.727 208.229Z" fill="white"/>
<path d="M912.628 216.93C911.142 216.93 909.899 216.446 908.899 215.478C907.898 214.509 907.398 213.298 907.398 211.846C907.398 210.393 907.898 209.182 908.899 208.199C909.884 207.23 911.142 206.746 912.628 206.746C914.113 206.746 915.356 207.23 916.357 208.199C917.357 209.182 917.858 210.378 917.858 211.846C917.858 213.314 917.357 214.509 916.342 215.478C915.326 216.461 914.098 216.945 912.643 216.945L912.628 216.93ZM912.628 208.229C911.642 208.229 910.809 208.577 910.142 209.273C909.475 209.969 909.126 210.817 909.126 211.815C909.126 212.814 909.46 213.662 910.142 214.343C910.824 215.024 911.642 215.387 912.628 215.387C913.613 215.387 914.447 215.039 915.114 214.343C915.796 213.646 916.13 212.799 916.13 211.815C916.13 210.832 915.796 209.969 915.114 209.273C914.432 208.577 913.613 208.229 912.628 208.229Z" fill="white"/>
<path d="M923.36 206.975C924.846 206.975 925.937 207.262 926.62 207.837C927.302 208.412 927.666 209.29 927.666 210.485C927.666 211.681 927.317 212.543 926.62 213.103C925.922 213.663 924.846 213.936 923.391 213.936H921.647V216.841H919.965V206.975H923.36ZM923.558 212.422C924.452 212.422 925.073 212.256 925.422 211.923C925.771 211.59 925.953 211.06 925.953 210.319C925.953 209.638 925.74 209.169 925.316 208.881C924.892 208.594 924.225 208.458 923.285 208.458H921.602V212.407H923.542L923.558 212.422Z" fill="white"/>
<path d="M936.609 206.975V208.518H931.334V211.151H936.064V212.619H931.334V215.267H936.776V216.841H929.651V206.975H936.609Z" fill="white"/>
<path d="M944.674 213.239L947.266 216.825H945.143L942.779 213.496H940.596V216.825H938.913V206.959H942.597C944.097 206.959 945.174 207.216 945.826 207.716C946.477 208.215 946.811 209.032 946.811 210.167C946.811 211.786 946.098 212.815 944.689 213.239H944.674ZM942.642 212.013C943.582 212.013 944.219 211.877 944.567 211.59C944.916 211.302 945.098 210.833 945.098 210.152C945.098 209.471 944.916 209.062 944.567 208.835C944.219 208.593 943.582 208.487 942.688 208.487H940.581V212.013H942.642Z" fill="white"/>
<path d="M950.616 214.601L949.631 216.841H947.857L952.223 206.975H953.996L958.347 216.841H956.573L955.588 214.601H950.631H950.616ZM954.906 213.043L953.102 208.987L951.298 213.043H954.891H954.906Z" fill="white"/>
<path d="M963.455 208.472V216.825H961.772V208.472H958.771V206.959H966.441V208.472H963.44H963.455Z" fill="white"/>
<path d="M968.276 206.975H969.959V216.841H968.276V206.975Z" fill="white"/>
<path d="M977.205 216.825H975.341L971.354 206.959H973.234L976.266 214.313L979.328 206.959H981.192L977.205 216.825Z" fill="white"/>
<path d="M983.996 214.601L983.01 216.841H981.237L985.618 206.975H987.391L991.742 216.841H989.968L988.983 214.601H984.026H983.996ZM988.286 213.043L986.482 208.987L984.678 213.043H988.271H988.286Z" fill="white"/>
<path d="M744.681 205.856C743.756 206.264 742.073 207.021 739.875 207.944C738.39 208.595 736.571 209.246 734.57 210.032C731.311 211.243 727.354 212.454 723.216 213.604C716.773 215.208 709.557 216.494 702.054 216.66C701.417 216.66 701.053 217.372 701.432 217.901L703.054 220.111C703.191 220.307 703.327 220.534 703.327 220.943C703.327 221.7 702.721 222.335 701.887 222.335H689.836C688.456 222.335 688.092 220.444 689.366 219.914C694.186 217.871 698.597 214.89 702.357 211.077C710.058 203.389 714.469 192.781 714.469 181.977C714.469 164.257 695.914 142.829 682.377 127.182L682.256 127.046C680.937 125.472 679.649 123.974 678.421 122.552C678.254 122.355 678.239 122.068 678.39 121.856L694.868 99.1873C695.065 98.9301 695.414 98.9452 695.566 99.1873L731.735 148.822C731.887 149.049 731.856 149.472 731.538 149.654C730.098 150.305 726.369 151.969 721.442 153.331C721.275 153.377 721.109 153.422 721.109 153.422C720.533 153.619 720.32 154.345 720.32 154.633C720.32 154.829 720.366 155.556 721.215 155.979C722.837 156.721 724.277 157.841 725.353 159.324C725.671 159.657 742.286 182.522 742.286 182.522C742.483 182.749 742.392 183.142 742.058 183.309C740.861 184.035 735.085 186.259 731.765 187.077C731.22 187.258 730.886 187.894 730.886 188.333C730.886 188.771 731.113 189.362 731.765 189.679C733.357 190.421 734.555 191.253 735.722 192.6C735.722 192.6 743.119 202.739 744.802 205.008C745.029 205.341 744.999 205.689 744.666 205.856H744.681Z" fill="white"/>
<path d="M695.55 155.827C693.959 153.572 692.291 151.317 690.563 149.108C685.925 143.115 680.922 137.335 676.48 132.205L676.299 131.993C675.328 130.843 674.373 129.723 673.433 128.634C673.297 128.467 673.039 128.482 672.918 128.664L658.229 148.82C658.077 149.047 658.108 149.471 658.426 149.652C659.866 150.303 663.58 151.968 668.522 153.33C668.689 153.36 668.855 153.42 668.855 153.42C669.432 153.617 669.644 154.328 669.644 154.631C669.644 154.828 669.613 155.554 668.765 155.978C667.142 156.719 665.687 157.839 664.626 159.322C664.293 159.655 647.678 182.505 647.678 182.505C647.481 182.732 647.572 183.141 647.906 183.292C649.118 184.018 654.879 186.243 658.199 187.06C658.729 187.241 659.078 187.877 659.078 188.316C659.078 188.755 658.851 189.345 658.199 189.663C656.607 190.419 655.394 191.252 654.227 192.598C654.227 192.598 649.588 198.939 646.814 202.722C646.102 203.721 645.495 204.523 645.147 205.007C644.919 205.34 644.95 205.688 645.283 205.839C646.208 206.263 647.891 207.004 650.089 207.928C651.256 208.442 652.62 208.957 654.121 209.532C654.53 209.683 654.955 209.864 655.394 210.031C658.669 211.242 662.61 212.437 666.764 213.602C669.386 214.253 672.145 214.858 674.98 215.342C675.177 215.373 675.374 215.388 675.571 215.373C681.21 214.979 686.531 213.209 691.17 210.228C693.201 208.926 695.096 207.383 696.824 205.643C697.021 205.446 697.203 205.264 697.37 205.067C703.297 198.848 706.692 190.495 706.692 181.975C706.692 174.212 701.917 164.982 695.535 155.842L695.55 155.827Z" fill="#FCD90D"/>
</g>
<defs>
<clipPath id="clip0_377_2702">
<rect width="1195" height="327" fill="white"/>
</clipPath>
</defs>
</svg>
