<svg width="1195" height="327" viewBox="0 0 1195 327" fill="none" xmlns="http://www.w3.org/2000/svg">
<g clip-path="url(#clip0_425_3016)">
<rect x="0.5" y="0.5" width="1194" height="326" fill="white" stroke="#F0F0F0"/>
<path d="M1157 107L1188.5 62L1220.5 107" stroke="#F0F0F0" stroke-width="12"/>
<path d="M1071 144L1102.5 99L1134.5 144" stroke="#F0F0F0" stroke-width="12"/>
<path d="M1071 219L1102.5 174L1134.5 219" stroke="#F0F0F0" stroke-width="12"/>
<path d="M1157 219L1188.5 174L1220.5 219" stroke="#F0F0F0" stroke-width="12"/>
<path d="M986 255L1017.5 210L1049.5 255" stroke="#F0F0F0" stroke-width="12"/>
<path d="M898 294L929.5 249L961.5 294" stroke="#F0F0F0" stroke-width="12"/>
<path d="M1071 294L1102.5 249L1134.5 294" stroke="#F0F0F0" stroke-width="12"/>
<path d="M1157 333L1188.5 288L1220.5 333" stroke="#F0F0F0" stroke-width="12"/>
<path d="M986 113L1017.5 68L1049.5 113" stroke="#F0F0F0" stroke-width="12"/>
</g>
<defs>
<clipPath id="clip0_425_3016">
<rect width="1195" height="327" fill="white"/>
</clipPath>
</defs>
</svg>
