<svg width="589" height="210" viewBox="0 0 589 210" fill="none" xmlns="http://www.w3.org/2000/svg">
<path d="M282.527 120.876C284.788 119.004 285.918 116.542 285.918 112.593V39.3535H326.43V115.824C326.43 131.237 323.99 136.673 314.742 144.007C303.824 152.47 287.049 159.599 261.411 159.599C235.773 159.599 219.024 152.444 208.08 144.007C198.858 136.673 196.392 131.237 196.392 115.824V39.3535H236.903V112.645C236.903 116.594 238.034 119.03 240.294 120.928C245.201 124.672 251.598 127.877 261.385 127.877C271.173 127.877 277.595 124.672 282.476 120.928H282.502L282.527 120.876Z" fill="white"/>
<path d="M381.868 134.519V156.907H341.279V39.3281H406.966C429.598 39.3281 444.344 44.5852 454.517 53.4324C463.765 61.3308 465.281 66.2289 465.281 81.4615V92.3603C465.281 107.593 463.765 112.491 454.517 120.389C444.318 129.237 429.598 134.494 406.966 134.494H381.868V134.519ZM381.868 69.4087V104.413H402.059C411.102 104.413 416.779 102.336 420.556 99.3355C423.767 96.6941 424.692 94.8221 424.692 89.1804V84.667C424.692 79.0253 423.741 77.1276 420.556 74.5119C416.779 71.5116 411.128 69.4344 402.059 69.4344H381.868V69.4087Z" fill="white"/>
<path d="M589 73.3315C575.821 71.0748 560.587 69.3822 549.31 69.3822C535.772 69.3822 527.885 72.3826 523.158 76.1267C519.767 78.768 518.637 81.3837 518.637 85.4868V110.798C518.637 114.926 519.767 117.542 523.158 120.158C527.859 123.902 535.746 126.902 549.31 126.902C560.587 126.902 575.821 125.21 589 122.953V154.829C577.337 157.265 562.668 158.573 548.745 158.573C520.538 158.573 500.603 149.931 489.3 141.314C479.898 134.006 478.202 128.749 478.202 113.952V82.2556C478.202 67.4333 479.898 62.2019 489.3 54.8933C500.577 46.2512 520.538 37.6348 548.745 37.6348C562.668 37.6348 577.337 38.9426 589 41.3788V73.2545V73.3315Z" fill="white"/>
<path d="M203.482 197.346C204.792 197.346 205.82 196.884 206.59 196.012C207.361 195.14 207.746 193.909 207.746 192.396V183.139H210.598V192.499C210.598 194.884 209.956 196.704 208.646 198.038C207.335 199.371 205.64 200.013 203.508 200.013C201.376 200.013 199.654 199.346 198.37 198.038C197.06 196.73 196.417 194.858 196.417 192.499V183.139H199.243V192.396C199.243 193.935 199.629 195.14 200.399 196.012C201.144 196.91 202.198 197.346 203.508 197.346H203.482Z" fill="white"/>
<path d="M217.303 187.345C217.303 188.037 217.56 188.55 218.073 188.883C218.613 189.268 219.717 189.653 221.439 190.089C223.237 190.525 224.573 191.114 225.395 191.858C226.217 192.602 226.654 193.679 226.654 195.115C226.654 196.551 226.114 197.782 224.984 198.705C223.879 199.628 222.44 200.064 220.642 200.064C218.073 200.064 215.736 199.141 213.655 197.32L215.427 195.192C217.149 196.679 218.921 197.423 220.719 197.423C221.618 197.423 222.338 197.218 222.877 196.833C223.417 196.423 223.699 195.91 223.699 195.269C223.699 194.628 223.442 194.115 222.954 193.756C222.466 193.397 221.593 193.063 220.334 192.756C218.176 192.268 216.66 191.653 215.813 190.986C214.836 190.243 214.348 189.089 214.348 187.524C214.348 185.96 214.888 184.832 215.993 183.985C217.097 183.139 218.484 182.703 220.206 182.703C222.518 182.703 224.496 183.396 226.14 184.703L224.624 186.832C224.136 186.396 223.442 186.011 222.62 185.729C221.773 185.447 220.951 185.293 220.128 185.293C219.306 185.293 218.587 185.473 218.099 185.832C217.585 186.191 217.328 186.678 217.328 187.319L217.303 187.345Z" fill="white"/>
<path d="M230.147 183.139H232.999V199.859H230.147V183.139Z" fill="white"/>
<path d="M250.211 183.139H253.037V199.859H249.98L240.475 187.652V199.859H237.623V183.139H240.475L250.211 195.602V183.139Z" fill="white"/>
<path d="M260.049 196.063L258.38 199.859H255.374L262.773 183.139H265.778L273.151 199.859H270.145L268.476 196.063H260.075H260.049ZM267.32 193.422L264.263 186.549L261.205 193.422H267.294H267.32Z" fill="white"/>
<path d="M287.82 183.139C290.337 183.139 292.187 183.626 293.343 184.6C294.499 185.575 295.116 187.062 295.116 189.088C295.116 191.114 294.525 192.576 293.343 193.525C292.161 194.473 290.337 194.935 287.871 194.935H284.917V199.859H282.065V183.139H287.82ZM288.154 192.371C289.669 192.371 290.723 192.088 291.314 191.524C291.904 190.96 292.213 190.063 292.213 188.806C292.213 187.652 291.853 186.857 291.159 186.37C290.44 185.883 289.31 185.652 287.717 185.652H284.866V192.345H288.154V192.371Z" fill="white"/>
<path d="M306.213 200.012C303.695 200.012 301.589 199.192 299.893 197.551C298.198 195.909 297.35 193.858 297.35 191.396C297.35 188.934 298.198 186.883 299.893 185.216C301.563 183.575 303.695 182.754 306.213 182.754C308.73 182.754 310.837 183.575 312.532 185.216C314.228 186.883 315.076 188.909 315.076 191.396C315.076 193.883 314.228 195.909 312.507 197.551C310.786 199.217 308.705 200.038 306.239 200.038L306.213 200.012ZM306.213 185.267C304.543 185.267 303.13 185.857 302 187.036C300.87 188.216 300.279 189.652 300.279 191.345C300.279 193.037 300.844 194.473 302 195.627C303.156 196.781 304.543 197.397 306.213 197.397C307.883 197.397 309.296 196.807 310.426 195.627C311.582 194.448 312.147 193.012 312.147 191.345C312.147 189.678 311.582 188.216 310.426 187.036C309.27 185.857 307.883 185.267 306.213 185.267Z" fill="white"/>
<path d="M324.401 183.139C326.918 183.139 328.768 183.626 329.924 184.6C331.08 185.575 331.697 187.062 331.697 189.088C331.697 191.114 331.106 192.576 329.924 193.525C328.742 194.473 326.918 194.935 324.452 194.935H321.498V199.859H318.646V183.139H324.401ZM324.735 192.371C326.25 192.371 327.304 192.088 327.895 191.524C328.485 190.96 328.794 190.063 328.794 188.806C328.794 187.652 328.434 186.857 327.74 186.37C327.021 185.883 325.891 185.652 324.298 185.652H321.447V192.345H324.735V192.371Z" fill="white"/>
<path d="M341.947 197.346C343.257 197.346 344.285 196.884 345.055 196.012C345.826 195.14 346.211 193.909 346.211 192.396V183.139H349.063V192.499C349.063 194.884 348.421 196.704 347.11 198.038C345.8 199.371 344.105 200.013 341.973 200.013C339.84 200.013 338.119 199.346 336.835 198.038C335.525 196.73 334.882 194.858 334.882 192.499V183.139H337.708V192.396C337.708 193.935 338.093 195.14 338.864 196.012C339.609 196.91 340.662 197.346 341.973 197.346H341.947Z" fill="white"/>
<path d="M353.507 199.833V183.113H356.358V197.166H364.014V199.833H353.533H353.507Z" fill="white"/>
<path d="M369.434 196.063L367.764 199.859H364.759L372.157 183.139H375.163L382.536 199.859H379.53L377.86 196.063H369.46H369.434ZM376.704 193.422L373.647 186.549L370.59 193.422H376.679H376.704Z" fill="white"/>
<path d="M394.635 193.756L399.028 199.833H395.432L391.424 194.192H387.725V199.833H384.874V183.113H391.116C393.659 183.113 395.483 183.549 396.588 184.395C397.692 185.242 398.258 186.627 398.258 188.55C398.258 191.294 397.05 193.038 394.661 193.756H394.635ZM391.219 191.678C392.812 191.678 393.89 191.448 394.481 190.96C395.072 190.473 395.38 189.678 395.38 188.524C395.38 187.37 395.072 186.678 394.481 186.293C393.89 185.883 392.811 185.703 391.296 185.703H387.725V191.678H391.219Z" fill="white"/>
<path d="M421.301 195.217L423.124 197.063C421.403 199.038 419.245 200.038 416.676 200.038C414.108 200.038 412.027 199.217 410.357 197.602C408.687 195.986 407.839 193.909 407.839 191.447C407.839 188.985 408.687 186.857 410.408 185.216C412.129 183.575 414.287 182.754 416.882 182.754C419.477 182.754 421.583 183.728 423.356 185.626L421.583 187.575C420.787 186.806 420.042 186.267 419.322 185.959C418.603 185.652 417.781 185.498 416.831 185.498C415.109 185.498 413.671 186.036 412.54 187.139C411.384 188.242 410.819 189.627 410.819 191.319C410.819 193.012 411.384 194.396 412.54 195.55C413.696 196.704 415.032 197.294 416.625 197.294C417.601 197.294 418.398 197.14 419.117 196.807C419.811 196.499 420.556 195.961 421.378 195.217H421.301Z" fill="white"/>
<path d="M434.325 200.012C431.808 200.012 429.701 199.192 428.006 197.551C426.31 195.909 425.462 193.858 425.462 191.396C425.462 188.934 426.31 186.883 428.006 185.216C429.675 183.575 431.808 182.754 434.325 182.754C436.843 182.754 438.949 183.575 440.645 185.216C442.34 186.883 443.188 188.909 443.188 191.396C443.188 193.883 442.34 195.909 440.619 197.551C438.898 199.217 436.817 200.038 434.351 200.038L434.325 200.012ZM434.325 185.267C432.655 185.267 431.242 185.857 430.112 187.036C428.982 188.216 428.391 189.652 428.391 191.345C428.391 193.037 428.956 194.473 430.112 195.627C431.268 196.781 432.655 197.397 434.325 197.397C435.995 197.397 437.408 196.807 438.538 195.627C439.694 194.448 440.259 193.012 440.259 191.345C440.259 189.678 439.694 188.216 438.538 187.036C437.382 185.857 435.995 185.267 434.325 185.267Z" fill="white"/>
<path d="M454.491 200.012C451.974 200.012 449.867 199.192 448.172 197.551C446.476 195.909 445.628 193.858 445.628 191.396C445.628 188.934 446.476 186.883 448.172 185.216C449.841 183.575 451.974 182.754 454.491 182.754C457.009 182.754 459.115 183.575 460.811 185.216C462.506 186.883 463.354 188.909 463.354 191.396C463.354 193.883 462.506 195.909 460.785 197.551C459.064 199.217 456.983 200.038 454.517 200.038L454.491 200.012ZM454.491 185.267C452.821 185.267 451.408 185.857 450.278 187.036C449.148 188.216 448.557 189.652 448.557 191.345C448.557 193.037 449.122 194.473 450.278 195.627C451.434 196.781 452.821 197.397 454.491 197.397C456.161 197.397 457.574 196.807 458.704 195.627C459.86 194.448 460.425 193.012 460.425 191.345C460.425 189.678 459.86 188.216 458.704 187.036C457.548 185.857 456.161 185.267 454.491 185.267Z" fill="white"/>
<path d="M472.679 183.139C475.197 183.139 477.046 183.626 478.202 184.6C479.358 185.575 479.975 187.062 479.975 189.088C479.975 191.114 479.384 192.576 478.202 193.525C477.021 194.473 475.197 194.935 472.731 194.935H469.776V199.859H466.925V183.139H472.679ZM473.013 192.371C474.529 192.371 475.582 192.088 476.173 191.524C476.764 190.96 477.072 190.063 477.072 188.806C477.072 187.652 476.712 186.857 475.993 186.37C475.274 185.883 474.143 185.652 472.551 185.652H469.699V192.345H472.987L473.013 192.371Z" fill="white"/>
<path d="M495.131 183.139V185.754H486.191V190.216H494.206V192.704H486.191V197.192H495.414V199.859H483.34V183.139H495.131Z" fill="white"/>
<path d="M508.798 193.756L513.191 199.833H509.594L505.587 194.192H501.888V199.833H499.036V183.113H505.279C507.822 183.113 509.646 183.549 510.75 184.395C511.855 185.242 512.42 186.627 512.42 188.55C512.42 191.294 511.213 193.038 508.824 193.756H508.798ZM505.356 191.678C506.948 191.678 508.027 191.448 508.618 190.96C509.209 190.473 509.517 189.678 509.517 188.524C509.517 187.37 509.209 186.678 508.618 186.293C508.027 185.883 506.948 185.703 505.433 185.703H501.862V191.678H505.356Z" fill="white"/>
<path d="M518.868 196.063L517.199 199.859H514.193L521.591 183.139H524.597L531.97 199.859H528.964L527.294 196.063H518.894H518.868ZM526.138 193.422L523.081 186.549L520.024 193.422H526.113H526.138Z" fill="white"/>
<path d="M540.627 185.678V199.833H537.775V185.678H532.689V183.113H545.688V185.678H540.601H540.627Z" fill="white"/>
<path d="M548.796 183.139H551.648V199.859H548.796V183.139Z" fill="white"/>
<path d="M563.927 199.833H560.767L554.011 183.113H557.197L562.335 195.576L567.524 183.113H570.683L563.927 199.833Z" fill="white"/>
<path d="M575.436 196.063L573.766 199.859H570.76L578.184 183.139H581.19L588.563 199.859H585.557L583.887 196.063H575.487H575.436ZM582.706 193.422L579.649 186.549L576.592 193.422H582.68H582.706Z" fill="white"/>
<path d="M169.881 181.241C168.314 181.934 165.462 183.216 161.737 184.78C159.22 185.883 156.137 186.986 152.746 188.319C147.223 190.371 140.518 192.422 133.505 194.371C122.587 197.089 110.359 199.269 97.6427 199.551C96.5638 199.551 95.9472 200.757 96.5895 201.654L99.3382 205.398C99.5694 205.732 99.8006 206.116 99.8006 206.809C99.8006 208.091 98.7731 209.168 97.3602 209.168H76.9372C74.5995 209.168 73.983 205.962 76.1409 205.065C84.31 201.603 91.7856 196.551 98.1565 190.089C111.207 177.061 118.682 159.085 118.682 140.775C118.682 110.746 87.2386 74.4334 64.2982 47.9173L64.0926 47.6865C61.8577 45.0196 59.6741 42.4808 57.5933 40.0702C57.3107 39.7368 57.285 39.2496 57.5419 38.8906L85.4661 0.475623C85.8 0.0396716 86.3909 0.0653158 86.6478 0.475623L147.942 84.5885C148.199 84.9732 148.148 85.6912 147.608 85.9989C145.168 87.1016 138.848 89.9225 130.499 92.2305C130.217 92.3074 129.934 92.3843 129.934 92.3843C128.958 92.7177 128.598 93.9486 128.598 94.4359C128.598 94.7692 128.675 96.0002 130.114 96.7182C132.863 97.9748 135.303 99.8724 137.127 102.386C137.667 102.95 165.822 141.698 165.822 141.698C166.156 142.083 166.002 142.749 165.437 143.032C163.407 144.262 153.619 148.032 147.994 149.417C147.069 149.725 146.504 150.802 146.504 151.545C146.504 152.289 146.889 153.289 147.994 153.828C150.691 155.084 152.72 156.495 154.698 158.777C154.698 158.777 167.235 175.959 170.086 179.805C170.472 180.369 170.42 180.959 169.855 181.241H169.881Z" fill="white"/>
<path d="M86.6219 96.4626C83.9245 92.6417 81.0987 88.8207 78.1701 85.0766C70.3092 74.9215 61.8318 65.1255 54.3049 56.4321L53.9966 56.0731C52.3525 54.1241 50.7341 52.2265 49.1413 50.3801C48.9101 50.098 48.4734 50.1236 48.2679 50.4314L23.3751 84.5894C23.1182 84.9741 23.1696 85.6921 23.709 85.9998C26.1495 87.1025 32.4434 89.9234 40.818 92.2314C41.1006 92.2826 41.3832 92.3852 41.3832 92.3852C42.3594 92.7186 42.719 93.9239 42.719 94.4368C42.719 94.7701 42.6677 96.0011 41.2291 96.7191C38.4803 97.9757 36.0141 99.8733 34.2159 102.386C33.6507 102.951 5.49538 141.673 5.49538 141.673C5.16142 142.058 5.31556 142.75 5.88072 143.007C7.93586 144.238 17.6978 148.007 23.3237 149.392C24.2228 149.7 24.8137 150.777 24.8137 151.521C24.8137 152.264 24.4283 153.264 23.3237 153.803C20.6263 155.085 18.5712 156.496 16.5931 158.778C16.5931 158.778 8.73222 169.523 4.0311 175.934C2.82371 177.626 1.79614 178.986 1.20529 179.806C0.819949 180.37 0.871328 180.96 1.43649 181.217C3.00353 181.935 5.85503 183.191 9.57996 184.756C11.558 185.627 13.8701 186.499 16.4133 187.474C17.1069 187.73 17.8262 188.038 18.5712 188.32C24.1201 190.372 30.7992 192.397 37.8381 194.372C42.2823 195.475 46.9577 196.501 51.7616 197.321C52.0956 197.372 52.4295 197.398 52.7635 197.372C62.3199 196.706 71.3368 193.705 79.1977 188.653C82.64 186.448 85.8512 183.832 88.7797 180.883C89.1137 180.55 89.422 180.242 89.7046 179.909C99.749 169.369 105.503 155.213 105.503 140.776C105.503 127.62 97.4113 111.977 86.5962 96.4883L86.6219 96.4626Z" fill="#FCD90D"/>
</svg>
