<svg width="558" height="173" viewBox="0 0 558 173" fill="none" xmlns="http://www.w3.org/2000/svg">
<path d="M0.567383 110.396C4.41261 90.1194 26.7696 64.4005 42.0244 46.8553C43.2642 45.4685 44.4618 44.0817 45.6595 42.6949C46.1218 42.1486 46.9623 42.1486 47.4246 42.6949C48.5382 44.0187 49.6939 45.3634 50.8916 46.7713L51.1227 47.0654C67.197 65.6612 88.6925 90.5397 92.4327 110.396H64.9277L57.9937 96.8853L55.8294 92.6619C54.8629 90.7708 52.1313 90.8759 51.3118 92.83L49.4838 97.1795L43.9365 110.396L40.6797 118.129L39.1878 121.68C39.0617 121.995 38.5995 122.016 38.4524 121.701L36.6243 118.129L32.674 110.396H0.567383Z" fill="#DF0133"/>
<path d="M92.9579 118.13C92.4536 129.645 87.5578 140.802 79.321 149.039C70.664 157.843 59.0022 162.676 46.479 162.676C33.9557 162.676 22.441 157.801 13.5949 148.976C5.27406 140.76 0.48328 129.876 0 118.109H27.9252L34.9223 131.767L37.0655 135.97C38.0321 137.861 40.7636 137.756 41.5831 135.801L43.4322 131.41L49.0425 118.088L52.2993 110.356L53.7282 106.931C53.8542 106.616 54.3165 106.595 54.4636 106.91L56.2286 110.377L60.1789 118.109H92.9159L92.9579 118.13Z" fill="#DF0133"/>
<path d="M145.531 149.332C144.249 149.899 141.917 150.95 138.87 152.232C136.811 153.135 134.289 154.039 131.516 155.131C126.998 156.812 121.514 158.493 115.777 160.09C106.847 162.318 96.8454 164.104 86.4444 164.335C85.5618 164.335 85.0576 165.322 85.5829 166.058L87.8312 169.126C88.0203 169.399 88.2094 169.714 88.2094 170.281C88.2094 171.332 87.3689 172.214 86.2132 172.214H69.5085C67.5964 172.214 67.0921 169.588 68.8571 168.852C75.539 166.016 81.6536 161.876 86.8646 156.581C97.5388 145.907 103.653 131.178 103.653 116.175C103.653 91.5695 77.9344 61.8163 59.1705 40.0897L59.0024 39.9006C57.1744 37.7153 55.3883 35.6351 53.6864 33.6599C53.4552 33.3868 53.4342 32.9876 53.6443 32.6934L76.4846 1.21712C76.7577 0.85991 77.241 0.880922 77.4511 1.21712L127.586 70.1371C127.796 70.4523 127.754 71.0406 127.313 71.2928C125.317 72.1963 120.148 74.5076 113.319 76.3987C113.088 76.4618 112.857 76.5248 112.857 76.5248C112.058 76.798 111.764 77.8065 111.764 78.2058C111.764 78.4789 111.827 79.4875 113.004 80.0759C115.252 81.1055 117.248 82.6604 118.74 84.7196C119.181 85.1818 142.211 116.931 142.211 116.931C142.484 117.246 142.358 117.793 141.896 118.024C140.236 119.032 132.23 122.121 127.628 123.256C126.872 123.508 126.41 124.391 126.41 125C126.41 125.609 126.725 126.429 127.628 126.87C129.835 127.9 131.494 129.055 133.112 130.925C133.112 130.925 143.366 145.004 145.699 148.155C146.014 148.618 145.972 149.101 145.51 149.332H145.531Z" fill="white"/>
<path d="M175.368 121.45C175.368 123.699 176.208 125.359 177.889 126.367C179.57 127.607 183.142 128.889 188.605 130.191C194.363 131.578 198.565 133.469 201.234 135.886C203.902 138.302 205.226 141.769 205.226 146.266C205.226 150.993 203.461 154.839 199.91 157.759C196.359 160.68 191.757 162.13 186.063 162.13C177.826 162.13 170.388 159.209 163.748 153.389L169.442 146.602C174.99 151.33 180.6 153.704 186.294 153.704C189.152 153.704 191.442 153.053 193.186 151.792C194.93 150.531 195.813 148.85 195.813 146.812C195.813 144.774 195.014 143.156 193.459 142C191.883 140.824 189.11 139.773 185.096 138.827C178.162 137.23 173.351 135.318 170.64 133.133C167.509 130.717 165.933 127.04 165.933 122.081C165.933 117.122 167.677 113.487 171.186 110.755C174.695 108.024 179.171 106.637 184.655 106.637C192.03 106.637 198.334 108.78 203.587 113.087L198.775 119.874C197.178 118.425 195.014 117.227 192.325 116.323C189.614 115.42 186.967 114.958 184.34 114.958C181.713 114.958 179.465 115.525 177.826 116.639C176.187 117.773 175.368 119.349 175.368 121.408V121.45Z" fill="#DF0133"/>
<path d="M223.948 149.356L218.59 161.501H208.967L232.584 108.004H242.208L265.742 161.501H256.118L250.76 149.356H223.948ZM247.146 140.93L237.417 118.951L227.689 140.93H247.167H247.146Z" fill="#DF0133"/>
<path d="M273.179 161.501V108.004H282.256V152.97H306.652V161.501H273.158H273.179Z" fill="#DF0133"/>
<path d="M338.486 153.493C342.646 153.493 345.945 152.064 348.382 149.227C350.82 146.37 352.039 142.525 352.039 137.629V107.98H361.116V137.965C361.116 145.55 359.036 151.455 354.875 155.699C350.715 159.923 345.252 162.045 338.465 162.045C331.678 162.045 326.215 159.944 322.054 155.699C317.894 151.476 315.813 145.55 315.813 137.965V107.98H324.786V137.629C324.786 142.588 326.025 146.454 328.505 149.227C330.921 152.085 334.22 153.493 338.465 153.493H338.486Z" fill="#DF0133"/>
<path d="M393.748 107.98C403.288 107.98 410.663 110.292 415.853 114.936C421.043 119.558 423.627 126.072 423.627 134.477C423.627 142.882 421.064 149.648 415.958 154.396C410.852 159.124 403.224 161.499 393.097 161.499H375.362V108.001H393.748V107.98ZM393.412 116.301H384.44V152.968H394.399C400.955 152.968 405.956 151.413 409.381 148.324C412.806 145.235 414.529 140.696 414.529 134.708C414.529 122.458 407.49 116.322 393.412 116.322V116.301Z" fill="#DF0133"/>
<path d="M222.057 63.6863C223.527 62.4676 224.2 60.9337 224.2 58.4123V11.6602H249.961V60.4294C249.961 70.2632 248.427 73.7302 242.543 78.3949C235.609 83.795 224.935 88.3336 208.63 88.3336C192.324 88.3336 181.692 83.795 174.758 78.3949C168.875 73.7302 167.341 70.2421 167.341 60.4294V11.6602H193.102V58.3913C193.102 60.9127 193.795 62.4466 195.245 63.6653C198.334 66.0607 202.41 68.0779 208.63 68.0779C214.849 68.0779 218.926 66.0607 222.057 63.6653V63.6863Z" fill="white"/>
<path d="M258.492 85.3283V65.7029C269.776 67.2999 283.328 68.0983 291.355 68.0983C299.382 68.0983 303.437 67.8462 305.475 67.2999C306.82 66.9426 307.261 66.5644 307.261 65.9551C307.261 65.0936 303.92 64.169 298.058 62.2569L276.71 55.2809C269.292 52.7594 264.375 49.7547 261.371 46.5608C258.618 43.6822 257.441 40.5513 257.441 37.4415V29.3729C257.441 23.7416 258.324 16.6815 265.594 13.9919C272.381 11.4705 284.862 10.5039 299.025 10.5039C309.657 10.5039 320.079 11.1973 328.231 12.8993V32.5247C317.935 30.7386 306.211 30.1293 295.768 30.1293C289.401 30.1293 286.06 30.3814 284.379 30.9908C283.328 31.2429 282.971 31.6842 282.971 32.2935C282.971 33.029 285.241 33.7644 289.674 35.1722L313.04 42.9677C320.709 45.4892 325.857 48.3679 328.988 51.3726C331.867 54.1252 333.043 56.7728 333.043 59.8615V68.8337C333.043 75.9989 329.135 82.9329 321.697 85.5805C314.994 87.9758 302.744 87.8288 291.124 87.8288C278.664 87.8288 267.023 87.2194 258.513 85.3913L258.492 85.3283Z" fill="white"/>
<path d="M339.41 86.5686V11.6602H365.171V86.5476H339.41V86.5686Z" fill="white"/>
<path d="M400.429 86.5686H374.668V11.6602H399.252L435.876 51.8145V11.6602H461.637V86.5476H437.095L400.429 46.4143V86.5476V86.5686Z" fill="white"/>
<path d="M526.501 74.5902H496.328L492.399 86.5671H465.902L491.18 11.6797H531.923L557.2 86.5671H530.494L526.523 74.5902H526.501ZM502.569 55.4061H520.303L513.138 33.1331H509.776L502.611 55.4061H502.569Z" fill="white"/>
</svg>
