<svg width="559" height="173" viewBox="0 0 559 173" fill="none" xmlns="http://www.w3.org/2000/svg">
<path d="M176.647 121.458C176.647 123.706 177.487 125.366 179.189 126.395C180.87 127.635 184.484 128.917 190.01 130.22C195.81 131.606 200.075 133.498 202.744 135.914C205.433 138.309 206.778 141.776 206.778 146.315C206.778 150.854 204.992 154.888 201.42 157.809C197.848 160.729 193.204 162.179 187.468 162.179C179.147 162.179 171.667 159.259 164.964 153.417L170.7 146.63C176.289 151.379 181.942 153.753 187.699 153.753C190.578 153.753 192.889 153.102 194.654 151.841C196.419 150.58 197.302 148.9 197.302 146.861C197.302 144.823 196.503 143.205 194.927 142.05C193.351 140.873 190.536 139.822 186.48 138.877C179.504 137.28 174.629 135.368 171.919 133.182C168.767 130.787 167.17 127.089 167.17 122.13C167.17 117.171 168.935 113.536 172.465 110.804C175.995 108.073 180.513 106.707 186.039 106.707C193.477 106.707 199.844 108.871 205.118 113.158L200.264 119.945C198.646 118.495 196.482 117.297 193.751 116.373C191.019 115.469 188.35 115.007 185.703 115.007C183.055 115.007 180.786 115.574 179.147 116.709C177.487 117.843 176.668 119.44 176.668 121.458H176.689H176.647Z" fill="#F9742B"/>
<path d="M255.968 107.99V116.416H227.181V130.641H252.984V138.626H227.181V152.956H256.85V161.487H218.02V107.969H255.968V107.99Z" fill="#F9742B"/>
<path d="M287.066 107.988C295.156 107.988 301.102 109.543 304.884 112.632C308.666 115.742 310.558 120.533 310.558 127.025C310.558 133.518 308.645 138.162 304.821 141.209C300.997 144.234 295.114 145.747 287.171 145.747H277.695V161.506H268.533V107.988H287.066ZM288.18 137.658C293.033 137.658 296.437 136.754 298.392 134.926C300.346 133.098 301.312 130.219 301.312 126.29C301.312 122.634 300.178 120.049 297.887 118.515C295.618 116.981 291.941 116.225 286.856 116.225H277.695V137.679H288.18V137.658Z" fill="#F9742B"/>
<path d="M359.347 107.99V116.416H330.561V130.641H356.364V138.626H330.561V152.956H360.23V161.487H321.399V107.969H359.347V107.99Z" fill="#F9742B"/>
<path d="M371.913 161.506V107.988H381.074V152.975H405.68V161.506H371.913Z" fill="#F9742B"/>
<path d="M415.597 107.988H424.758V161.506H415.597V107.988Z" fill="#F9742B"/>
<path d="M464.577 162.052C456.487 162.052 449.721 159.405 444.279 154.11C438.837 148.815 436.105 142.238 436.105 134.358C436.105 126.479 438.837 119.902 444.279 114.607C449.721 109.312 456.487 106.664 464.577 106.664C472.667 106.664 479.433 109.312 484.875 114.607C490.317 119.902 493.049 126.479 493.049 134.358C493.049 142.238 490.296 148.815 484.77 154.068C479.244 159.384 472.52 162.052 464.577 162.052ZM464.577 114.88C459.198 114.88 454.68 116.771 451.003 120.574C447.326 124.377 445.477 128.979 445.477 134.358C445.477 139.737 447.326 144.339 451.003 148.1C454.68 151.861 459.198 153.731 464.577 153.731C469.956 153.731 474.474 151.861 478.151 148.1C481.828 144.339 483.677 139.758 483.677 134.358C483.677 128.958 481.828 124.356 478.151 120.574C474.474 116.771 469.956 114.88 464.577 114.88Z" fill="#F9742B"/>
<path d="M511.791 121.458C511.791 123.706 512.632 125.366 514.334 126.395C516.015 127.635 519.629 128.917 525.155 130.22C530.954 131.606 535.22 133.498 537.888 135.914C540.578 138.309 541.923 141.776 541.923 146.315C541.923 150.854 540.137 154.888 536.565 157.809C532.992 160.729 528.349 162.179 522.612 162.179C514.292 162.179 506.811 159.259 500.108 153.417L505.845 146.63C511.434 151.379 517.086 153.753 522.844 153.753C525.722 153.753 528.034 153.102 529.799 151.841C531.564 150.58 532.446 148.9 532.446 146.861C532.446 144.823 531.648 143.205 530.072 142.05C528.496 140.873 525.68 139.822 521.625 138.877C514.649 137.28 509.774 135.368 507.063 133.182C503.912 130.787 502.315 127.089 502.315 122.13C502.315 117.171 504.08 113.536 507.61 110.804C511.14 108.073 515.657 106.707 521.184 106.707C528.622 106.707 534.989 108.871 540.263 113.158L535.409 119.945C533.791 118.495 531.627 117.297 528.895 116.373C526.164 115.469 523.495 115.007 520.847 115.007C518.2 115.007 515.931 115.574 514.292 116.709C512.632 117.843 511.812 119.44 511.812 121.458H511.833H511.791Z" fill="#F9742B"/>
<path d="M73.3503 72.6879C73.6235 73.0451 73.4133 73.5704 72.9511 73.6335C71.9845 73.7385 71.081 73.9066 70.2195 74.1798C66.2062 75.3564 63.1804 77.983 61.2893 80.3994C60.9321 80.8616 60.4698 81.1978 59.9235 81.3659L48.8501 84.6859C46.6438 85.3372 45.173 87.2493 45.0889 89.5397C44.9838 91.83 46.3076 93.8262 48.4719 94.6666L60.2177 99.2053C60.3858 99.2683 60.4908 99.4784 60.4488 99.6676C59.9025 101.538 58.8099 103.66 56.8137 104.879C53.2416 107.001 48.0096 105.215 44.2694 103.345C33.5952 98.0286 26.6822 85.4003 23.2152 76.7853C22.1646 74.1588 22.5849 71.154 24.3289 68.9267C25.0433 68.0232 25.7367 67.1407 26.4511 66.2582C26.7663 65.8589 27.3756 65.901 27.6488 66.3212L36.4319 79.9791C36.621 80.2733 37.0833 80.0842 36.9992 79.748L33.3641 62.7701C32.8388 60.3327 33.4902 57.7692 35.1081 55.8571C35.3393 55.584 35.5704 55.3318 35.7805 55.0587C36.0957 54.7015 36.684 54.7435 36.9362 55.1427L45.0679 67.8131C45.257 68.1072 45.7193 67.9181 45.6352 67.5819L42.3573 52.3481C41.832 49.8687 42.5044 47.2842 44.1644 45.3721C45.173 44.1954 46.2446 42.9977 46.8539 42.2833C47.1271 41.9681 47.6314 41.9681 47.9045 42.2833C49.1443 43.7331 50.426 45.225 51.7288 46.7589L51.9599 47.053C58.6838 54.7855 66.3322 63.5896 73.2452 72.6669H73.2873L73.3503 72.6879Z" fill="#F9742B"/>
<path d="M94.1947 116.16C94.1947 128.347 89.1938 140.324 80.4317 149.044C72.7412 156.819 62.6974 161.505 51.7711 162.492C50.3422 162.618 48.8924 162.681 47.4215 162.681C34.9823 162.681 23.2575 157.806 14.3694 149.002C8.29684 143.035 4.0944 135.66 2.07723 127.57C1.99319 127.234 2.35039 126.939 2.66558 127.108C10.23 131.058 20.9252 135.176 35.0454 137.298C35.3185 137.34 35.4866 137.614 35.3816 137.866C34.3309 140.261 32.3768 143.644 28.7417 147.3C31.1371 149.654 35.1084 149.696 37.4407 147.279C42.7358 141.732 43.4502 134.315 43.5343 132.214C43.5343 131.898 43.3031 131.604 42.988 131.583L40.2564 131.268C24.4132 129.419 12.7935 124.901 5.08198 120.783C2.16128 119.207 0.50132 116.097 0.858527 112.819C0.9846 111.643 1.21573 110.319 1.55193 108.932C1.65699 108.491 2.16128 108.281 2.56051 108.512L16.5336 116.728C16.8488 116.896 17.164 116.538 16.9539 116.265L7.39332 104.477C5.43918 102.061 5.08198 98.7411 6.48979 95.9675V95.9255L6.51081 95.8834C6.82599 95.2741 7.14117 94.6647 7.47737 94.0554C7.7085 93.6351 8.27583 93.5721 8.59101 93.9083L18.6979 104.877C18.929 105.15 19.3703 104.877 19.2232 104.561L13.4658 90.3783C12.4573 87.8988 12.7514 85.1042 14.2223 82.8769C14.8737 81.9103 15.525 80.9648 16.1974 79.9982C16.4916 79.578 17.122 79.641 17.3111 80.1243C21.5135 90.2312 29.1199 103.343 41.286 109.415C45.5935 111.559 49.5017 112.63 52.9898 112.63C55.6793 112.63 58.1167 111.979 60.281 110.697C65.492 107.608 67.5092 101.599 67.6353 97.3963L67.6773 95.7784C67.6773 95.3371 67.4251 94.9379 67.0049 94.7908L55.7634 90.4413C55.4272 90.3152 55.4482 89.8319 55.7844 89.7269L64.6515 87.0373C65.0087 86.9323 65.3239 86.6801 65.492 86.3649C66.3535 84.8521 69.3162 80.3765 74.6323 80.3765C76.1452 80.3765 77.9102 80.8808 78.8768 81.1959C79.339 81.343 79.7173 81.6372 79.9904 82.0364C88.1852 94.0764 94.1526 106.095 94.1526 116.307L94.1947 116.16Z" fill="#F9742B"/>
<path d="M146.704 149.319C145.423 149.886 143.09 150.937 140.044 152.219C137.984 153.122 135.463 154.026 132.689 155.118C128.172 156.799 122.688 158.48 116.951 160.077C108.021 162.304 98.0192 164.09 87.6182 164.322C86.7357 164.322 86.2314 165.309 86.7567 166.045L89.005 169.112C89.1941 169.385 89.3832 169.701 89.3832 170.268C89.3832 171.319 88.5427 172.201 87.387 172.201H70.6824C68.7703 172.201 68.266 169.575 70.031 168.839C76.7129 166.003 82.8274 161.863 88.0384 156.568C98.7126 145.894 104.827 131.164 104.827 116.162C104.827 91.5773 79.1293 61.8241 60.3444 40.0765L60.1763 39.8874C58.3482 37.7021 56.5622 35.6219 54.8602 33.6467C54.629 33.3736 54.608 32.9743 54.8182 32.6802L77.6584 1.22493C77.9316 0.867722 78.4148 0.888734 78.625 1.22493L128.76 70.1449C128.97 70.4601 128.928 71.0484 128.487 71.3006C126.491 72.2041 121.322 74.5154 114.493 76.4065C114.262 76.4696 114.031 76.5326 114.031 76.5326C113.232 76.8058 112.938 77.8144 112.938 78.2136C112.938 78.4867 113.001 79.4953 114.178 80.0837C116.426 81.1133 118.422 82.6682 119.914 84.7274C120.355 85.1896 143.385 116.918 143.385 116.918C143.658 117.233 143.532 117.78 143.069 118.011C141.409 119.019 133.404 122.108 128.802 123.243C128.046 123.495 127.583 124.377 127.583 124.987C127.583 125.596 127.899 126.416 128.802 126.857C131.008 127.886 132.668 129.042 134.286 130.912C134.286 130.912 144.54 144.99 146.873 148.142C147.188 148.604 147.146 149.088 146.683 149.319H146.704Z" fill="white"/>
<path d="M223.209 63.6731C224.68 62.4544 225.352 60.9205 225.352 58.3991V11.668H251.113V60.4373C251.113 70.25 249.579 73.738 243.696 78.4027C236.762 83.8028 226.088 88.3415 209.782 88.3415C193.477 88.3415 182.844 83.8028 175.91 78.4027C170.027 73.738 168.493 70.25 168.493 60.4373V11.668H194.254V58.3991C194.254 60.9205 194.948 62.4544 196.397 63.6731C199.486 66.0685 203.563 68.0857 209.782 68.0857C216.002 68.0857 220.078 66.0685 223.209 63.6731Z" fill="white"/>
<path d="M259.644 85.3361V65.7107C270.928 67.2867 284.481 68.1061 292.507 68.1061C300.534 68.1061 304.589 67.854 306.628 67.3077C307.972 66.9505 308.414 66.5722 308.414 65.9629C308.414 65.1014 305.073 64.1769 299.21 62.2647L277.862 55.2887C270.445 52.7672 265.528 49.7835 262.523 46.5686C259.77 43.69 258.594 40.5592 258.594 37.4493V29.3807C258.594 23.7494 259.476 16.6893 266.746 13.9997C273.533 11.4783 286.015 10.5117 300.177 10.5117C310.809 10.5117 321.231 11.2051 329.384 12.9071V32.5325C319.088 30.7465 307.363 30.1371 296.92 30.1371C290.553 30.1371 287.212 30.3892 285.531 30.9986C284.481 31.2507 284.124 31.692 284.124 32.3014C284.124 33.0368 286.393 33.7722 290.826 35.18L314.192 42.9756C321.861 45.497 327.009 48.3757 330.14 51.3804C333.019 54.133 334.196 56.7806 334.196 59.8694V68.8416C334.196 76.0067 330.287 82.9407 322.87 85.5883C316.167 87.9837 303.917 87.8366 292.297 87.8366C279.837 87.8366 268.196 87.2272 259.686 85.3992L259.644 85.3361Z" fill="white"/>
<path d="M340.562 86.5554V11.668H366.323V86.5554H340.562Z" fill="white"/>
<path d="M401.561 86.5554H375.8V11.668H400.384L437.008 51.8223V11.668H462.769V86.5554H438.227L401.561 46.4431V86.5554Z" fill="white"/>
<path d="M527.634 74.5785H497.461L493.532 86.5554H467.035L492.313 11.668H533.034L558.312 86.5554H531.606L527.634 74.5785ZM503.701 55.4153H521.436L514.271 33.1424H510.909L503.743 55.4153H503.701Z" fill="white"/>
</svg>
