<svg width="586" height="183" viewBox="0 0 586 183" fill="none" xmlns="http://www.w3.org/2000/svg">
<path d="M147.245 158.347C145.864 158.956 143.385 160.052 140.155 161.431C137.96 162.385 135.278 163.339 132.332 164.516C127.537 166.302 121.686 168.087 115.591 169.792C106.082 172.166 95.4562 174.053 84.3832 174.297C83.4486 174.297 82.9204 175.352 83.469 176.123L85.8664 179.39C86.0696 179.674 86.2728 180.019 86.2728 180.628C86.2728 181.724 85.3788 182.677 84.1597 182.677H66.4023C64.3706 182.677 63.822 179.897 65.7115 179.106C72.8226 176.082 79.3242 171.699 84.8709 166.058C96.2283 154.715 102.73 139.07 102.73 123.12C102.73 96.9837 75.3826 65.3686 55.3903 42.2559L55.2277 42.053C53.2772 39.7194 51.3877 37.5278 49.5795 35.4377C49.3153 35.1537 49.3153 34.7275 49.5388 34.4029L73.7775 0.961444C74.062 0.596185 74.5699 0.596185 74.8137 0.961444L128.167 74.1957C128.411 74.5407 128.33 75.1697 127.883 75.4335C125.77 76.4075 120.264 78.8629 112.99 80.8515C112.746 80.9124 112.503 80.9935 112.503 80.9935C111.67 81.2979 111.324 82.3531 111.324 82.7792C111.324 83.0836 111.385 84.1388 112.645 84.7679C115.042 85.8636 117.176 87.5073 118.76 89.6989C119.228 90.1859 143.751 123.932 143.751 123.932C144.035 124.277 143.913 124.845 143.405 125.088C141.638 126.164 133.104 129.451 128.228 130.648C127.436 130.912 126.928 131.866 126.928 132.495C126.928 133.124 127.253 134.017 128.228 134.484C130.565 135.579 132.353 136.797 134.059 138.806C134.059 138.806 144.97 153.761 147.449 157.109C147.774 157.596 147.733 158.124 147.245 158.347Z" fill="white"/>
<path d="M74.7733 84.546C72.4367 81.2181 69.9783 77.8901 67.4183 74.6231C60.5714 65.796 53.1961 57.2531 46.6336 49.6841L46.3695 49.3797C44.9269 47.6752 43.525 46.0315 42.1638 44.4284C41.9606 44.1849 41.5746 44.2052 41.3917 44.469L19.7333 74.2173C19.4895 74.5622 19.5708 75.1913 20.0178 75.4551C22.1308 76.4291 27.6368 78.8845 34.9104 80.8731C35.1542 80.9137 35.3981 81.0151 35.3981 81.0151C36.2311 81.3195 36.5765 82.3544 36.5562 82.8008C36.5562 83.1052 36.5155 84.1604 35.2558 84.7895C32.8584 85.8852 30.725 87.5289 29.1403 89.7204C28.6527 90.2075 4.14984 123.933 4.14984 123.933C3.86539 124.278 3.9873 124.866 4.49523 125.11C6.28317 126.185 14.7962 129.452 19.6724 130.67C20.4444 130.934 20.9727 131.887 20.9727 132.517C20.9727 133.146 20.6273 134.038 19.6724 134.485C17.3359 135.601 15.5479 136.818 13.8209 138.807C13.8209 138.807 6.97396 148.162 2.89016 153.742C1.83365 155.203 0.959999 156.4 0.431746 157.111C0.106667 157.598 0.147302 158.105 0.63492 158.348C2.01651 158.977 4.49523 160.053 7.72571 161.433C9.43237 162.204 11.4438 162.934 13.6584 163.807C14.2679 164.05 14.8978 164.294 15.5276 164.537C20.3428 166.323 26.1739 168.089 32.2895 169.813C36.1701 170.767 40.2336 171.66 44.3987 172.391C44.6831 172.431 44.9879 172.451 45.2723 172.431C53.5822 171.863 61.445 169.245 68.2717 164.842C71.2583 162.934 74.0825 160.641 76.6221 158.064C76.9066 157.78 77.191 157.496 77.4348 157.212C86.1917 148.04 91.1897 135.702 91.1897 123.121C91.1897 111.656 84.1396 98.0402 74.7326 84.546H74.7733Z" fill="#FCD90D"/>
<path d="M228.657 67.3148C230.222 66.0161 230.933 64.3927 230.933 61.7142V12.0391H258.341V63.8651C258.341 74.2953 256.695 78.0087 250.438 82.96C243.062 88.7027 231.705 93.5322 214.354 93.5322C197.003 93.5322 185.706 88.7027 178.311 82.96C172.053 78.0087 170.407 74.2953 170.407 63.8651V12.0391H197.815V61.7142C197.815 64.3927 198.547 66.0161 200.091 67.3148C203.382 69.8513 207.73 72.0023 214.334 72.0023C220.937 72.0023 225.285 69.8513 228.617 67.3148H228.657Z" fill="white"/>
<path d="M267.443 90.3466V69.4863C279.451 71.1706 293.856 72.0229 302.41 72.0229C310.963 72.0229 315.271 71.7591 317.424 71.1706C318.846 70.785 319.314 70.3995 319.314 69.7501C319.314 68.837 315.778 67.863 309.5 65.8135L286.785 58.3866C278.882 55.708 273.66 52.5221 270.471 49.1131C267.545 46.049 266.285 42.7413 266.285 39.4134V30.8299C266.285 24.8437 267.22 17.3356 274.961 14.4947C282.194 11.8161 295.461 10.7812 310.516 10.7812C321.833 10.7812 332.906 11.5118 341.602 13.3178V34.1781C330.651 32.2909 318.156 31.6415 307.062 31.6415C300.276 31.6415 296.741 31.9053 294.933 32.5547C293.815 32.8185 293.429 33.2852 293.429 33.9346C293.429 34.7057 295.847 35.497 300.561 36.9987L325.429 45.2778C333.577 47.9564 339.083 51.0002 342.394 54.2064C345.462 57.1284 346.702 59.9288 346.702 63.2161V72.7534C346.702 80.3832 342.557 87.729 334.633 90.5496C327.502 93.0861 314.458 92.944 302.105 92.944C288.838 92.944 276.464 92.2947 267.403 90.3669L267.443 90.3466Z" fill="white"/>
<path d="M353.528 91.645V12.0391H380.937V91.6248H353.528V91.645Z" fill="white"/>
<path d="M418.463 91.645H391.055V12.0391H417.224L456.192 54.7134V12.0391H483.601V91.6248H457.493L418.483 48.991V91.6248L418.463 91.645Z" fill="white"/>
<path d="M552.598 78.9211H520.497L516.311 91.6443H488.131L515.031 12.0586H558.368L585.269 91.6443H556.865L552.639 78.9211H552.598ZM527.14 58.5275H546.015L538.376 34.8669H534.8L527.161 58.5275H527.14Z" fill="white"/>
<path d="M210.352 114.438V123.386H179.977V138.504H207.202V146.986H179.977V162.205H211.286V171.276H170.326V114.438H210.352Z" fill="#FCD90D"/>
<path d="M266.326 114.438H275.876V171.276H265.514L233.27 129.778V171.276H223.619V114.438H233.27L266.326 156.868V114.438Z" fill="#FCD90D"/>
<path d="M331.727 114.438V123.386H301.353V138.504H328.578V146.986H301.353V162.205H332.662V171.276H291.702V114.438H331.727Z" fill="#FCD90D"/>
<path d="M378.174 150.578L393.066 171.276H380.856L367.243 152.1H354.666V171.276H345.016V114.438H366.207C374.821 114.438 380.998 115.899 384.777 118.8C388.536 121.702 390.425 126.41 390.425 132.924C390.425 142.299 386.341 148.183 378.214 150.598L378.174 150.578ZM366.532 143.496C371.875 143.496 375.573 142.684 377.584 141.061C379.596 139.437 380.612 136.678 380.612 132.802C380.612 128.926 379.596 126.552 377.584 125.192C375.573 123.833 371.957 123.163 366.755 123.163H354.646V143.496H366.511H366.532Z" fill="#FCD90D"/>
<path d="M443.799 143.615H453.348V163.034C447.984 169 440.304 171.983 430.308 171.983C421.856 171.983 414.785 169.203 409.117 163.623C403.448 158.042 400.624 151.062 400.624 142.701C400.624 134.341 403.509 127.3 409.3 121.598C415.07 115.896 422.079 113.055 430.308 113.055C438.536 113.055 445.363 115.429 450.788 120.137L445.668 127.462C441.706 124.134 436.87 122.47 431.121 122.47C425.371 122.47 420.434 124.357 416.512 128.111C412.591 131.865 410.641 136.736 410.641 142.701C410.641 148.667 412.53 153.497 416.289 157.17C420.048 160.843 424.721 162.689 430.308 162.689C435.895 162.689 440.243 161.533 443.799 159.199V143.615Z" fill="#FCD90D"/>
<path d="M466.026 114.436H475.677V171.274H466.026V114.436ZM474.885 109.667H466.514L475.129 97.918L484.779 101.875L474.885 109.667Z" fill="#FCD90D"/>
<path d="M499.428 158.37L493.719 171.276H483.479L508.611 114.438H518.851L543.882 171.276H533.642L527.933 158.37H499.428ZM524.113 149.421L513.752 126.065L503.39 149.421H524.113Z" fill="#FCD90D"/>
</svg>
