<?xml version="1.0" encoding="UTF-8"?>
<svg id="Capa_1" data-name="Capa 1" xmlns="http://www.w3.org/2000/svg" viewBox="0 0 549 173">
  <defs>
    <style>
      .cls-1 {
        fill: #fff;
      }

      .cls-2 {
        fill: #fced36;
      }
    </style>
  </defs>
  <g>
    <path class="cls-1" d="M201.85,97.45c1.53-1.27,2.28-2.92,2.28-5.59v-49.5h27.33v51.67c0,10.41-1.65,14.09-7.88,19.04-7.37,5.71-18.69,10.54-35.98,10.54s-28.6-4.83-35.98-10.54c-6.23-4.95-7.88-8.64-7.88-19.04v-51.67h27.33v49.52c0,2.67.77,4.32,2.28,5.59,3.3,2.53,7.63,4.69,14.23,4.69s10.93-2.16,14.23-4.69h.02Z"/>
    <path class="cls-1" d="M268.86,106.67v15.13h-27.37V42.34h44.3c15.27,0,25.21,3.56,32.08,9.53,6.24,5.34,7.26,8.65,7.26,18.95v7.37c0,10.3-1.02,13.6-7.26,18.95-6.87,5.98-16.81,9.53-32.08,9.53h-16.93ZM268.86,62.67v23.65h13.62c6.11,0,9.93-1.4,12.48-3.44,2.16-1.78,2.8-3.05,2.8-6.86v-3.05c0-3.81-.63-5.09-2.8-6.86-2.54-2.03-6.36-3.44-12.48-3.44h-13.62Z"/>
    <path class="cls-1" d="M408.58,65.32c-8.88-1.52-19.16-2.66-26.77-2.66-9.14,0-14.46,2.02-17.63,4.56-2.28,1.78-3.04,3.55-3.04,6.33v17.1c0,2.78.76,4.56,3.04,6.33,3.17,2.53,8.5,4.56,17.63,4.56,7.61,0,17.89-1.14,26.77-2.66v21.55c-7.87,1.65-17.77,2.53-27.15,2.53-19.03,0-32.48-5.83-40.09-11.66-6.34-4.94-7.49-8.49-7.49-18.5v-21.41c0-10.01,1.14-13.56,7.49-18.5,7.61-5.83,21.06-11.66,40.09-11.66,9.39,0,19.28.88,27.15,2.53v21.55Z"/>
    <g>
      <path class="cls-1" d="M148.54,149.12c.88,0,1.57-.3,2.09-.9.52-.59.78-1.41.78-2.45v-6.26h1.92v6.33c0,1.6-.44,2.85-1.31,3.74-.88.9-2.03,1.34-3.47,1.34s-2.6-.45-3.47-1.34c-.88-.89-1.31-2.14-1.31-3.74v-6.33h1.9v6.26c0,1.04.26,1.86.79,2.45.51.61,1.21.9,2.1.9Z"/>
      <path class="cls-1" d="M157.85,142.36c0,.47.18.82.53,1.04.36.26,1.11.53,2.27.81,1.21.29,2.11.7,2.67,1.2.56.51.84,1.23.84,2.2s-.37,1.81-1.12,2.42c-.75.62-1.72.92-2.92.92-1.74,0-3.31-.62-4.72-1.85l1.2-1.44c1.17,1,2.36,1.5,3.56,1.5.61,0,1.09-.13,1.46-.4.37-.27.55-.62.55-1.06s-.17-.77-.49-1.02c-.34-.25-.92-.47-1.78-.67-1.46-.34-2.48-.74-3.06-1.2-.66-.5-.99-1.29-.99-2.33s.37-1.82,1.11-2.39c.74-.57,1.69-.86,2.84-.86,1.56,0,2.89.46,4,1.36l-1.02,1.44c-.34-.3-.8-.56-1.36-.75-.57-.19-1.13-.29-1.69-.29s-1.03.12-1.37.36c-.35.24-.52.57-.52,1.01h-.01Z"/>
      <path class="cls-1" d="M166.53,139.52h1.92v11.3h-1.92v-11.3Z"/>
      <path class="cls-1" d="M180.05,139.52h1.9v11.3h-2.06l-6.4-8.25v8.25h-1.92v-11.3h1.92l6.57,8.43v-8.43h-.01Z"/>
      <path class="cls-1" d="M186.69,148.25l-1.13,2.57h-2.03l5-11.3h2.03l4.97,11.3h-2.03l-1.13-2.57h-5.66ZM191.59,146.46l-2.06-4.65-2.06,4.65h4.11Z"/>
      <path class="cls-1" d="M205.42,139.52c1.7,0,2.94.32,3.73.99.79.66,1.19,1.67,1.19,3.04s-.4,2.36-1.2,3c-.8.64-2.03.95-3.7.95h-1.99v3.32h-1.92v-11.3h3.89ZM205.66,145.77c1.02,0,1.73-.19,2.14-.57.4-.38.61-.99.61-1.83,0-.77-.24-1.31-.72-1.64-.48-.33-1.25-.48-2.31-.48h-1.92v4.52h2.21Z"/>
      <path class="cls-1" d="M217.83,150.92c-1.7,0-3.11-.56-4.26-1.67-1.15-1.11-1.71-2.5-1.71-4.16s.57-3.05,1.71-4.17c1.13-1.11,2.56-1.67,4.26-1.67s3.11.56,4.26,1.67c1.15,1.12,1.71,2.5,1.71,4.17s-.57,3.05-1.73,4.16c-1.16,1.12-2.57,1.68-4.24,1.68h0ZM217.83,140.97c-1.12,0-2.08.4-2.84,1.2-.76.8-1.16,1.77-1.16,2.91s.38,2.11,1.16,2.9c.77.79,1.72,1.19,2.84,1.19s2.08-.39,2.84-1.19c.77-.8,1.16-1.76,1.16-2.9s-.38-2.11-1.16-2.91c-.77-.8-1.72-1.2-2.84-1.2Z"/>
      <path class="cls-1" d="M230.09,139.52c1.7,0,2.94.32,3.73.99.79.66,1.19,1.67,1.19,3.04s-.4,2.36-1.2,3c-.8.64-2.03.95-3.7.95h-1.99v3.32h-1.92v-11.3h3.89ZM230.33,145.77c1.02,0,1.73-.19,2.13-.57.4-.38.61-.99.61-1.83,0-.77-.24-1.31-.72-1.64-.48-.33-1.25-.48-2.31-.48h-1.92v4.52h2.21Z"/>
      <path class="cls-1" d="M241.93,149.12c.88,0,1.57-.3,2.09-.9.52-.59.77-1.41.77-2.45v-6.26h1.92v6.33c0,1.6-.44,2.85-1.31,3.74-.88.9-2.03,1.34-3.47,1.34s-2.6-.45-3.47-1.34c-.88-.89-1.31-2.14-1.31-3.74v-6.33h1.9v6.26c0,1.04.26,1.86.79,2.45.51.61,1.21.9,2.1.9Z"/>
      <path class="cls-1" d="M249.73,150.81v-11.3h1.92v9.49h5.16v1.81h-7.08Z"/>
      <path class="cls-1" d="M260.48,148.25l-1.13,2.57h-2.03l5-11.3h2.03l4.97,11.3h-2.03l-1.13-2.57h-5.66ZM265.38,146.46l-2.06-4.65-2.06,4.65h4.11Z"/>
      <path class="cls-1" d="M277.48,146.7l2.95,4.11h-2.43l-2.71-3.81h-2.49v3.81h-1.92v-11.3h4.21c1.71,0,2.94.29,3.69.86.75.57,1.12,1.51,1.12,2.81,0,1.86-.81,3.03-2.43,3.51h0ZM275.16,145.29c1.07,0,1.8-.16,2.2-.48.4-.32.61-.87.61-1.64s-.2-1.25-.61-1.51c-.4-.27-1.12-.4-2.15-.4h-2.4v4.04h2.36-.01Z"/>
      <path class="cls-1" d="M295.46,147.69l1.23,1.25c-1.17,1.34-2.62,2.01-4.35,2.01s-3.13-.55-4.27-1.65c-1.13-1.1-1.7-2.49-1.7-4.16s.57-3.1,1.73-4.22c1.16-1.11,2.62-1.67,4.37-1.67s3.18.65,4.37,1.94l-1.2,1.31c-.54-.53-1.04-.89-1.53-1.09-.48-.2-1.05-.3-1.69-.3-1.16,0-2.12.37-2.9,1.11-.78.74-1.17,1.68-1.17,2.82s.38,2.08,1.16,2.86c.77.79,1.69,1.18,2.75,1.18.65,0,1.2-.11,1.67-.32.47-.21.98-.57,1.52-1.07h0Z"/>
      <path class="cls-1" d="M304.25,150.92c-1.7,0-3.11-.56-4.26-1.67-1.15-1.11-1.71-2.5-1.71-4.16s.57-3.05,1.71-4.17c1.13-1.11,2.56-1.67,4.26-1.67s3.11.56,4.26,1.67c1.15,1.12,1.71,2.5,1.71,4.17s-.57,3.05-1.73,4.16c-1.16,1.12-2.57,1.68-4.24,1.68h0ZM304.25,140.97c-1.12,0-2.08.4-2.84,1.2-.76.8-1.16,1.77-1.16,2.91s.38,2.11,1.16,2.9c.77.79,1.72,1.19,2.84,1.19s2.08-.39,2.84-1.19c.77-.8,1.16-1.76,1.16-2.9s-.38-2.11-1.16-2.91c-.77-.8-1.72-1.2-2.84-1.2Z"/>
      <path class="cls-1" d="M317.85,150.92c-1.7,0-3.11-.56-4.26-1.67-1.15-1.11-1.71-2.5-1.71-4.16s.57-3.05,1.71-4.17c1.13-1.11,2.56-1.67,4.26-1.67s3.11.56,4.26,1.67c1.15,1.12,1.71,2.5,1.71,4.17s-.57,3.05-1.73,4.16c-1.16,1.12-2.57,1.68-4.24,1.68h0ZM317.85,140.97c-1.12,0-2.08.4-2.84,1.2-.76.8-1.16,1.77-1.16,2.91s.38,2.11,1.16,2.9c.77.79,1.72,1.19,2.84,1.19s2.08-.39,2.84-1.19c.77-.8,1.16-1.76,1.16-2.9s-.38-2.11-1.16-2.91c-.77-.8-1.72-1.2-2.84-1.2Z"/>
      <path class="cls-1" d="M330.11,139.52c1.7,0,2.94.32,3.73.99.79.66,1.19,1.67,1.19,3.04s-.4,2.36-1.2,3c-.8.64-2.03.95-3.7.95h-1.99v3.32h-1.92v-11.3h3.89ZM330.33,145.77c1.02,0,1.73-.19,2.13-.57.4-.38.61-.99.61-1.83,0-.77-.24-1.31-.72-1.64-.48-.33-1.25-.48-2.31-.48h-1.92v4.52h2.21Z"/>
      <path class="cls-1" d="M345.25,139.52v1.77h-6.03v3.01h5.41v1.68h-5.41v3.03h6.22v1.81h-8.14v-11.3h7.95Z"/>
      <path class="cls-1" d="M354.48,146.7l2.95,4.11h-2.43l-2.71-3.81h-2.49v3.81h-1.92v-11.3h4.21c1.71,0,2.94.29,3.69.86.75.57,1.12,1.51,1.12,2.81,0,1.86-.81,3.03-2.43,3.51h0ZM352.16,145.29c1.07,0,1.8-.16,2.2-.48.4-.32.61-.87.61-1.64s-.2-1.25-.61-1.51c-.4-.27-1.12-.4-2.15-.4h-2.4v4.04h2.36-.01Z"/>
      <path class="cls-1" d="M361.27,148.25l-1.13,2.57h-2.03l5-11.3h2.03l4.97,11.3h-2.03l-1.13-2.57h-5.66ZM366.18,146.46l-2.06-4.65-2.06,4.65h4.11Z"/>
      <path class="cls-1" d="M375.96,141.25v9.56h-1.92v-9.56h-3.43v-1.73h8.76v1.73h-3.43.01Z"/>
      <path class="cls-1" d="M381.46,139.52h1.92v11.3h-1.92v-11.3Z"/>
      <path class="cls-1" d="M391.66,150.81h-2.12l-4.55-11.3h2.15l3.47,8.43,3.49-8.43h2.12l-4.55,11.3h-.01Z"/>
      <path class="cls-1" d="M399.43,148.25l-1.13,2.57h-2.03l5-11.3h2.03l4.97,11.3h-2.03l-1.13-2.57h-5.66ZM404.34,146.46l-2.06-4.65-2.06,4.65h4.11Z"/>
    </g>
  </g>
  <g>
    <path class="cls-1" d="M125.88,138.23c-1.06.47-2.99,1.33-5.49,2.39-1.7.74-3.77,1.49-6.07,2.39-3.72,1.38-8.24,2.77-12.98,4.1-7.37,1.84-15.61,3.31-24.19,3.49-.73.01-1.14.82-.71,1.41l1.86,2.54c.16.22.31.48.31.95,0,.86-.69,1.6-1.64,1.6h-13.77c-1.58,0-2-2.16-.54-2.78,5.51-2.34,10.55-5.75,14.85-10.12,8.8-8.8,13.84-20.95,13.84-33.33,0-20.28-21.2-44.82-36.69-62.75l-.13-.16c-1.51-1.8-2.97-3.51-4.38-5.14-.2-.23-.21-.56-.03-.8l18.81-25.95c.22-.29.62-.28.8,0l41.35,56.84c.18.27.13.75-.22.95-1.64.75-5.91,2.66-11.54,4.21-.19.05-.38.11-.38.11-.65.23-.91,1.05-.91,1.38.01.23.05,1.05,1.02,1.55,1.86.85,3.5,2.13,4.74,3.83.36.37,19.36,26.56,19.36,26.56.22.27.12.71-.27.89-1.38.83-7.98,3.38-11.76,4.32-.62.21-1,.94-1,1.44s.25,1.18,1,1.55c1.81.85,3.19,1.8,4.52,3.35,0,0,8.46,11.6,10.38,14.2.25.37.22.79-.16.97Z"/>
    <path class="cls-2" d="M69.72,80.96c-1.81-2.59-3.72-5.16-5.69-7.7-5.31-6.85-11.02-13.48-16.1-19.35l-.21-.24c-1.11-1.32-2.2-2.6-3.27-3.84-.16-.19-.45-.17-.6.03l-16.78,23.08c-.18.27-.13.75.22.96,1.64.75,5.9,2.66,11.54,4.21.19.04.38.11.38.11.65.23.91,1.04.89,1.38,0,.23-.04,1.05-1,1.55-1.86.85-3.52,2.13-4.74,3.83-.38.37-19.37,26.55-19.37,26.55-.22.27-.12.73.27.91,1.38.83,7.98,3.37,11.76,4.32.6.21,1,.94,1,1.44s-.27,1.18-1,1.54c-1.81.86-3.2,1.81-4.53,3.36,0,0-5.31,7.26-8.47,11.59-.82,1.14-1.5,2.07-1.9,2.61-.25.37-.22.77.16.96,1.06.48,2.99,1.33,5.49,2.39,1.33.59,2.89,1.17,4.61,1.84.47.18.96.37,1.45.57,3.74,1.38,8.26,2.76,12.99,4.1,3,.75,6.15,1.44,9.39,2,.22.04.45.05.68.04,6.44-.45,12.53-2.48,17.83-5.89,2.32-1.49,4.5-3.25,6.47-5.26.22-.22.43-.44.63-.67,6.78-7.12,10.66-16.69,10.66-26.45,0-8.9-5.46-19.46-12.75-29.93Z"/>
  </g>
</svg>