<svg width="589" height="210" viewBox="0 0 589 210" fill="none" xmlns="http://www.w3.org/2000/svg">
<path d="M281.797 120.89C284.058 119.018 285.188 116.556 285.188 112.607V39.3672H325.7V115.838C325.7 131.25 323.259 136.687 314.011 144.021C303.093 152.484 286.318 159.613 260.68 159.613C235.043 159.613 218.293 152.458 207.35 144.021C198.127 136.687 195.661 131.25 195.661 115.838V39.3672H236.173V112.658C236.173 116.607 237.303 119.044 239.564 120.941C244.471 124.685 250.867 127.891 260.655 127.891C270.442 127.891 276.865 124.685 281.746 120.941H281.771L281.797 120.89Z" fill="white"/>
<path d="M381.137 134.531V156.918H340.548V39.3398H406.235C428.867 39.3398 443.613 44.5969 453.786 53.4441C463.034 61.3425 464.55 66.2406 464.55 81.4732V92.372C464.55 107.605 463.034 112.503 453.786 120.401C443.587 129.248 428.867 134.505 406.235 134.505H381.137V134.531ZM381.137 69.4205V104.425H401.328C410.371 104.425 416.048 102.348 419.825 99.3472C423.036 96.7058 423.961 94.8338 423.961 89.1921V84.6787C423.961 79.037 423.01 77.1394 419.825 74.5236C416.048 71.5233 410.397 69.4461 401.328 69.4461H381.137V69.4205Z" fill="white"/>
<path d="M588.269 73.3451C575.091 71.0884 559.857 69.3959 548.579 69.3959C535.041 69.3959 527.155 72.3963 522.428 76.1403C519.037 78.7817 517.906 81.3974 517.906 85.5005V110.811C517.906 114.94 519.037 117.556 522.428 120.171C527.129 123.915 535.015 126.916 548.579 126.916C559.857 126.916 575.091 125.223 588.269 122.967V154.842C576.606 157.278 561.938 158.586 548.014 158.586C519.807 158.586 499.873 149.944 488.569 141.328C479.167 134.019 477.472 128.762 477.472 113.965V82.2693C477.472 67.447 479.167 62.2156 488.569 54.907C499.847 46.2649 519.807 37.6484 548.014 37.6484C561.938 37.6484 576.606 38.9563 588.269 41.3925V73.2682V73.3451Z" fill="white"/>
<path d="M202.751 197.363C204.061 197.363 205.089 196.902 205.859 196.03C206.63 195.158 207.015 193.927 207.015 192.414V183.156H209.867V192.516C209.867 194.901 209.225 196.722 207.915 198.056C206.604 199.389 204.909 200.03 202.777 200.03C200.645 200.03 198.923 199.363 197.639 198.056C196.329 196.748 195.687 194.876 195.687 192.516V183.156H198.512V192.414C198.512 193.952 198.898 195.158 199.668 196.03C200.413 196.927 201.467 197.363 202.777 197.363H202.751Z" fill="white"/>
<path d="M216.572 187.36C216.572 188.053 216.829 188.566 217.342 188.899C217.882 189.284 218.986 189.668 220.708 190.104C222.506 190.54 223.842 191.13 224.664 191.874C225.486 192.617 225.923 193.694 225.923 195.131C225.923 196.567 225.383 197.798 224.253 198.721C223.148 199.644 221.71 200.08 219.911 200.08C217.342 200.08 215.005 199.157 212.924 197.336L214.696 195.207C216.418 196.695 218.19 197.438 219.988 197.438C220.887 197.438 221.607 197.233 222.146 196.849C222.686 196.438 222.968 195.926 222.968 195.284C222.968 194.643 222.711 194.13 222.223 193.771C221.735 193.412 220.862 193.079 219.603 192.771C217.445 192.284 215.929 191.669 215.082 191.002C214.106 190.258 213.617 189.104 213.617 187.54C213.617 185.976 214.157 184.847 215.262 184.001C216.366 183.155 217.753 182.719 219.475 182.719C221.787 182.719 223.765 183.411 225.409 184.719L223.893 186.847C223.405 186.412 222.711 186.027 221.889 185.745C221.042 185.463 220.22 185.309 219.398 185.309C218.575 185.309 217.856 185.488 217.368 185.847C216.854 186.206 216.597 186.694 216.597 187.335L216.572 187.36Z" fill="white"/>
<path d="M229.416 183.156H232.268V199.876H229.416V183.156Z" fill="white"/>
<path d="M249.479 183.156H252.305V199.876H249.248L239.743 187.67V199.876H236.892V183.156H239.743L249.479 195.619V183.156Z" fill="white"/>
<path d="M259.319 196.081L257.649 199.876H254.644L262.042 183.156H265.048L272.42 199.876H269.415L267.745 196.081H259.345H259.319ZM266.589 193.44L263.532 186.567L260.475 193.44H266.563H266.589Z" fill="white"/>
<path d="M287.088 183.156C289.606 183.156 291.456 183.643 292.612 184.618C293.768 185.592 294.384 187.08 294.384 189.106C294.384 191.132 293.793 192.593 292.612 193.542C291.43 194.491 289.606 194.953 287.14 194.953H284.185V199.876H281.334V183.156H287.088ZM287.422 192.388C288.938 192.388 289.991 192.106 290.582 191.542C291.173 190.978 291.481 190.08 291.481 188.824C291.481 187.67 291.122 186.875 290.428 186.387C289.709 185.9 288.578 185.669 286.986 185.669H284.134V192.363H287.422V192.388Z" fill="white"/>
<path d="M305.482 200.028C302.964 200.028 300.858 199.207 299.162 197.566C297.467 195.925 296.619 193.873 296.619 191.412C296.619 188.95 297.467 186.898 299.162 185.231C300.832 183.59 302.964 182.77 305.482 182.77C307.999 182.77 310.106 183.59 311.801 185.231C313.497 186.898 314.345 188.924 314.345 191.412C314.345 193.899 313.497 195.925 311.776 197.566C310.055 199.233 307.974 200.054 305.508 200.054L305.482 200.028ZM305.482 185.283C303.812 185.283 302.399 185.872 301.269 187.052C300.139 188.232 299.548 189.668 299.548 191.36C299.548 193.053 300.113 194.489 301.269 195.643C302.425 196.797 303.812 197.412 305.482 197.412C307.152 197.412 308.565 196.823 309.695 195.643C310.851 194.463 311.416 193.027 311.416 191.36C311.416 189.693 310.851 188.232 309.695 187.052C308.539 185.872 307.152 185.283 305.482 185.283Z" fill="white"/>
<path d="M323.67 183.156C326.188 183.156 328.038 183.643 329.194 184.618C330.35 185.592 330.966 187.08 330.966 189.106C330.966 191.132 330.375 192.593 329.194 193.542C328.012 194.491 326.188 194.953 323.722 194.953H320.768V199.876H317.916V183.156H323.67ZM324.004 192.388C325.52 192.388 326.573 192.106 327.164 191.542C327.755 190.978 328.063 190.08 328.063 188.824C328.063 187.67 327.704 186.875 327.01 186.387C326.291 185.9 325.16 185.669 323.568 185.669H320.716V192.363H324.004V192.388Z" fill="white"/>
<path d="M341.216 197.363C342.526 197.363 343.554 196.902 344.324 196.03C345.095 195.158 345.48 193.927 345.48 192.414V183.156H348.332V192.516C348.332 194.901 347.69 196.722 346.379 198.056C345.069 199.389 343.374 200.03 341.242 200.03C339.109 200.03 337.388 199.363 336.104 198.056C334.794 196.748 334.151 194.876 334.151 192.516V183.156H336.977V192.414C336.977 193.952 337.363 195.158 338.133 196.03C338.878 196.927 339.931 197.363 341.242 197.363H341.216Z" fill="white"/>
<path d="M352.776 199.849V183.129H355.628V197.182H363.283V199.849H352.802H352.776Z" fill="white"/>
<path d="M368.704 196.081L367.034 199.876H364.028L371.427 183.156H374.432L381.805 199.876H378.8L377.13 196.081H368.729H368.704ZM375.974 193.44L372.917 186.567L369.86 193.44H375.948H375.974Z" fill="white"/>
<path d="M393.904 193.771L398.297 199.849H394.701L390.693 194.207H386.994V199.849H384.143V183.129H390.385C392.928 183.129 394.752 183.565 395.857 184.411C396.962 185.257 397.527 186.642 397.527 188.565C397.527 191.309 396.319 193.053 393.93 193.771H393.904ZM390.488 191.694C392.081 191.694 393.16 191.463 393.75 190.976C394.341 190.489 394.649 189.694 394.649 188.54C394.649 187.386 394.341 186.693 393.75 186.309C393.16 185.898 392.081 185.719 390.565 185.719H386.994V191.694H390.488Z" fill="white"/>
<path d="M420.57 195.233L422.394 197.079C420.672 199.054 418.514 200.054 415.945 200.054C413.377 200.054 411.296 199.233 409.626 197.618C407.956 196.002 407.108 193.925 407.108 191.463C407.108 189.001 407.956 186.873 409.677 185.231C411.398 183.59 413.556 182.77 416.151 182.77C418.746 182.77 420.852 183.744 422.625 185.642L420.852 187.591C420.056 186.821 419.311 186.283 418.591 185.975C417.872 185.667 417.05 185.513 416.1 185.513C414.378 185.513 412.94 186.052 411.81 187.155C410.654 188.257 410.088 189.642 410.088 191.335C410.088 193.027 410.654 194.412 411.81 195.566C412.966 196.72 414.301 197.31 415.894 197.31C416.87 197.31 417.667 197.156 418.386 196.823C419.08 196.515 419.825 195.976 420.647 195.233H420.57Z" fill="white"/>
<path d="M433.594 200.028C431.077 200.028 428.97 199.207 427.275 197.566C425.579 195.925 424.731 193.873 424.731 191.412C424.731 188.95 425.579 186.898 427.275 185.231C428.944 183.59 431.077 182.77 433.594 182.77C436.112 182.77 438.218 183.59 439.914 185.231C441.609 186.898 442.457 188.924 442.457 191.412C442.457 193.899 441.609 195.925 439.888 197.566C438.167 199.233 436.086 200.054 433.62 200.054L433.594 200.028ZM433.594 185.283C431.924 185.283 430.512 185.872 429.381 187.052C428.251 188.232 427.66 189.668 427.66 191.36C427.66 193.053 428.225 194.489 429.381 195.643C430.537 196.797 431.924 197.412 433.594 197.412C435.264 197.412 436.677 196.823 437.807 195.643C438.963 194.463 439.528 193.027 439.528 191.36C439.528 189.693 438.963 188.232 437.807 187.052C436.651 185.872 435.264 185.283 433.594 185.283Z" fill="white"/>
<path d="M453.76 200.028C451.243 200.028 449.136 199.207 447.441 197.566C445.745 195.925 444.897 193.873 444.897 191.412C444.897 188.95 445.745 186.898 447.441 185.231C449.111 183.59 451.243 182.77 453.76 182.77C456.278 182.77 458.384 183.59 460.08 185.231C461.775 186.898 462.623 188.924 462.623 191.412C462.623 193.899 461.775 195.925 460.054 197.566C458.333 199.233 456.252 200.054 453.786 200.054L453.76 200.028ZM453.76 185.283C452.09 185.283 450.678 185.872 449.547 187.052C448.417 188.232 447.826 189.668 447.826 191.36C447.826 193.053 448.391 194.489 449.547 195.643C450.703 196.797 452.09 197.412 453.76 197.412C455.43 197.412 456.843 196.823 457.973 195.643C459.129 194.463 459.694 193.027 459.694 191.36C459.694 189.693 459.129 188.232 457.973 187.052C456.817 185.872 455.43 185.283 453.76 185.283Z" fill="white"/>
<path d="M471.948 183.156C474.465 183.156 476.315 183.643 477.471 184.618C478.627 185.592 479.243 187.08 479.243 189.106C479.243 191.132 478.653 192.593 477.471 193.542C476.289 194.491 474.465 194.953 471.999 194.953H469.045V199.876H466.193V183.156H471.948ZM472.282 192.388C473.797 192.388 474.851 192.106 475.441 191.542C476.032 190.978 476.341 190.08 476.341 188.824C476.341 187.67 475.981 186.875 475.262 186.387C474.542 185.9 473.412 185.669 471.819 185.669H468.968V192.363H472.256L472.282 192.388Z" fill="white"/>
<path d="M494.401 183.156V185.772H485.461V190.234H493.476V192.722H485.461V197.209H494.683V199.876H482.609V183.156H494.401Z" fill="white"/>
<path d="M508.068 193.771L512.46 199.849H508.864L504.856 194.207H501.157V199.849H498.306V183.129H504.548C507.091 183.129 508.915 183.565 510.02 184.411C511.125 185.257 511.69 186.642 511.69 188.565C511.69 191.309 510.482 193.053 508.093 193.771H508.068ZM504.625 191.694C506.218 191.694 507.297 191.463 507.888 190.976C508.479 190.489 508.787 189.694 508.787 188.54C508.787 187.386 508.479 186.693 507.888 186.309C507.297 185.898 506.218 185.719 504.702 185.719H501.131V191.694H504.625Z" fill="white"/>
<path d="M518.137 196.081L516.468 199.876H513.462L520.86 183.156H523.866L531.239 199.876H528.233L526.563 196.081H518.163H518.137ZM525.407 193.44L522.35 186.567L519.293 193.44H525.382H525.407Z" fill="white"/>
<path d="M539.896 185.693V199.849H537.044V185.693H531.958V183.129H544.957V185.693H539.87H539.896Z" fill="white"/>
<path d="M548.065 183.156H550.917V199.876H548.065V183.156Z" fill="white"/>
<path d="M563.196 199.849H560.037L553.28 183.129H556.466L561.604 195.592L566.793 183.129H569.953L563.196 199.849Z" fill="white"/>
<path d="M574.705 196.081L573.035 199.876H570.029L577.453 183.156H580.459L587.832 199.876H584.826L583.156 196.081H574.756H574.705ZM581.975 193.44L578.918 186.567L575.861 193.44H581.949H581.975Z" fill="white"/>
<path d="M169.149 181.255C167.582 181.947 164.731 183.23 161.006 184.794C158.488 185.897 155.406 186.999 152.015 188.333C146.491 190.384 139.787 192.436 132.773 194.385C121.856 197.103 109.627 199.283 96.9113 199.565C95.8323 199.565 95.2158 200.77 95.858 201.668L98.6068 205.412C98.838 205.745 99.0692 206.13 99.0692 206.822C99.0692 208.105 98.0416 209.182 96.6287 209.182H76.2058C73.8681 209.182 73.2515 205.976 75.4094 205.078C83.5786 201.617 91.0542 196.565 97.4251 190.102C110.475 177.075 117.951 159.098 117.951 140.789C117.951 110.759 86.5072 74.4471 63.5667 47.931L63.3612 47.7002C61.1262 45.0332 58.9427 42.4944 56.8618 40.0839C56.5793 39.7505 56.5536 39.2633 56.8105 38.9043L84.7346 0.489294C85.0686 0.0533435 85.6594 0.0789877 85.9163 0.489294L147.211 84.6022C147.468 84.9868 147.416 85.7049 146.877 86.0126C144.436 87.1153 138.117 89.9362 129.768 92.2441C129.485 92.3211 129.203 92.398 129.203 92.398C128.226 92.7314 127.867 93.9623 127.867 94.4495C127.867 94.7829 127.944 96.0138 129.382 96.7319C132.131 97.9884 134.572 99.8861 136.396 102.399C136.935 102.963 165.09 141.712 165.09 141.712C165.424 142.096 165.27 142.763 164.705 143.045C162.676 144.276 152.888 148.046 147.262 149.431C146.337 149.738 145.772 150.815 145.772 151.559C145.772 152.303 146.157 153.303 147.262 153.841C149.959 155.098 151.989 156.508 153.967 158.791C153.967 158.791 166.503 175.972 169.355 179.819C169.74 180.383 169.689 180.973 169.124 181.255H169.149Z" fill="white"/>
<path d="M85.8909 96.4744C83.1935 92.6534 80.3677 88.8324 77.4392 85.0884C69.5783 74.9333 61.1008 65.1372 53.5739 56.4438L53.2656 56.0848C51.6215 54.1358 50.0031 52.2382 48.4104 50.3918C48.1792 50.1097 47.7425 50.1353 47.5369 50.4431L22.6441 84.6011C22.3872 84.9858 22.4386 85.7038 22.9781 86.0115C25.4185 87.1142 31.7124 89.9351 40.0871 92.2431C40.3697 92.2944 40.6522 92.3969 40.6522 92.3969C41.6284 92.7303 41.9881 93.9356 41.9881 94.4485C41.9881 94.7818 41.9367 96.0128 40.4981 96.7308C37.7494 97.9874 35.2832 99.885 33.4849 102.398C32.9198 102.962 4.76443 141.685 4.76443 141.685C4.43047 142.07 4.5846 142.762 5.14976 143.019C7.2049 144.249 16.9668 148.019 22.5927 149.404C23.4918 149.712 24.0827 150.789 24.0827 151.532C24.0827 152.276 23.6974 153.276 22.5927 153.815C19.8954 155.097 17.8402 156.507 15.8622 158.79C15.8622 158.79 8.00126 169.535 3.30014 175.946C2.09275 177.638 1.06518 178.997 0.47433 179.818C0.0889921 180.382 0.140371 180.972 0.705533 181.228C2.27257 181.946 5.12407 183.203 8.84901 184.767C10.8271 185.639 13.1391 186.511 15.6823 187.486C16.3759 187.742 17.0952 188.05 17.8402 188.332C23.3891 190.383 30.0683 192.409 37.1071 194.384C41.5514 195.487 46.2268 196.512 51.0307 197.333C51.3646 197.384 51.6986 197.41 52.0325 197.384C61.5889 196.717 70.6058 193.717 78.4667 188.665C81.9091 186.46 85.1202 183.844 88.0488 180.895C88.3828 180.562 88.691 180.254 88.9736 179.92C99.0181 169.381 104.772 155.225 104.772 140.787C104.772 127.632 96.6804 111.989 85.8652 96.5L85.8909 96.4744Z" fill="#FCD90D"/>
</svg>
