<?xml version="1.0" encoding="UTF-8"?>
<svg id="Capa_1" data-name="Capa 1" xmlns="http://www.w3.org/2000/svg" xmlns:xlink="http://www.w3.org/1999/xlink" viewBox="0 0 549 173">
  <defs>
    <style>
      .cls-1 {
        fill: #df0133;
      }

      .cls-2 {
        filter: url(#outer-glow-1);
      }

      .cls-3 {
        fill: #1c4235;
      }
    </style>
    <filter id="outer-glow-1" x="-22.14" y="-12.14" width="516" height="198" filterUnits="userSpaceOnUse">
      <feOffset dx="0" dy="0"/>
      <feGaussianBlur result="blur" stdDeviation="9.05"/>
      <feFlood flood-color="#000" flood-opacity=".15"/>
      <feComposite in2="blur" operator="in"/>
      <feComposite in="SourceGraphic"/>
    </filter>
  </defs>
  <g class="cls-2">
    <g>
      <path class="cls-1" d="M6.32,106.14c3.17-16.73,21.61-37.93,34.2-52.4,1.02-1.15,2.02-2.29,2.99-3.43.39-.45,1.07-.45,1.45,0,.92,1.09,1.88,2.21,2.85,3.35l.19.24c13.26,15.34,30.98,35.85,34.07,52.23h-22.68l-5.72-11.15-1.79-3.49c-.8-1.55-3.04-1.47-3.72.14l-1.51,3.59-4.58,10.9-2.68,6.37-1.23,2.93c-.11.26-.48.28-.61.02l-1.51-2.95-3.26-6.37H6.32Z"/>
      <path class="cls-1" d="M82.52,112.51c-.41,9.49-4.46,18.7-11.25,25.49-7.14,7.25-16.75,11.25-27.08,11.25s-19.82-4.01-27.11-11.29c-6.85-6.77-10.81-15.75-11.2-25.46h23.03l5.77,11.27,1.78,3.47c.79,1.55,3.04,1.47,3.72-.14l1.52-3.61,4.63-10.99,2.68-6.37,1.18-2.83c.11-.26.48-.28.61-.02l1.46,2.85,3.26,6.37h27Z"/>
      <path class="cls-3" d="M125.88,138.23c-1.06.47-2.99,1.33-5.49,2.39-1.7.74-3.77,1.49-6.07,2.39-3.72,1.38-8.24,2.77-12.98,4.1-7.37,1.84-15.61,3.31-24.19,3.49-.73.01-1.14.82-.71,1.41l1.86,2.54c.16.22.31.48.31.95,0,.86-.69,1.6-1.64,1.6h-13.77c-1.58,0-2-2.16-.54-2.78,5.51-2.34,10.55-5.75,14.85-10.12,8.8-8.8,13.84-20.95,13.84-33.33,0-20.28-21.2-44.82-36.69-62.75l-.13-.16c-1.51-1.8-2.97-3.51-4.38-5.14-.2-.23-.21-.56-.03-.8l18.81-25.95c.22-.29.62-.28.8,0l41.35,56.84c.18.27.13.75-.22.95-1.64.75-5.91,2.66-11.54,4.21-.19.05-.38.11-.38.11-.65.23-.91,1.05-.91,1.38.01.23.05,1.05,1.02,1.55,1.86.85,3.5,2.13,4.74,3.83.36.37,19.36,26.56,19.36,26.56.22.27.12.71-.27.89-1.38.83-7.98,3.38-11.76,4.32-.62.21-1,.94-1,1.44s.25,1.18,1,1.55c1.81.85,3.19,1.8,4.52,3.35,0,0,8.46,11.6,10.38,14.2.25.37.22.79-.16.97Z"/>
    </g>
    <g>
      <path class="cls-1" d="M196.76,140.65l-4.45,10.06h-7.97l19.57-44.31h7.97l19.49,44.31h-7.97l-4.45-10.06h-22.21.01ZM215.97,133.68l-8.06-18.21-8.06,18.21h16.13Z"/>
      <path class="cls-1" d="M237.54,150.72v-44.31h7.52v37.25h20.21v7.07h-27.73Z"/>
      <path class="cls-1" d="M291.64,144.09c3.44,0,6.17-1.18,8.21-3.54,2.02-2.36,3.04-5.56,3.04-9.61v-24.56h7.52v24.83c0,6.28-1.72,11.18-5.16,14.69-3.44,3.51-7.97,5.25-13.59,5.25s-10.15-1.75-13.59-5.25c-3.44-3.51-5.16-8.4-5.16-14.69v-24.83h7.43v24.56c0,4.11,1.02,7.31,3.08,9.61,1.99,2.36,4.74,3.54,8.25,3.54h-.01Z"/>
      <path class="cls-1" d="M337.4,106.39c7.91,0,14.01,1.92,18.3,5.75,4.29,3.83,6.44,9.23,6.44,16.18s-2.12,12.57-6.35,16.49c-4.23,3.92-10.55,5.89-18.94,5.89h-14.68v-44.31h15.23ZM337.13,113.28h-7.43v30.36h8.25c5.44,0,9.58-1.29,12.42-3.85,2.84-2.56,4.26-6.33,4.26-11.28,0-10.15-5.83-15.23-17.48-15.23h-.01Z"/>
      <path class="cls-1" d="M156.37,117.52c0,1.87.7,3.24,2.1,4.08,1.4,1.03,4.38,2.08,8.95,3.17,4.8,1.14,8.32,2.72,10.55,4.71,2.22,1.99,3.33,4.86,3.33,8.6s-1.48,7.09-4.43,9.51c-2.95,2.42-6.8,3.62-11.55,3.62-6.88,0-13.09-2.42-18.63-7.25l4.75-5.61c4.63,3.93,9.31,5.89,14.06,5.89,2.38,0,4.29-.53,5.75-1.58,1.46-1.05,2.19-2.43,2.19-4.12s-.66-3.02-1.96-3.99c-1.31-.97-3.64-1.84-6.99-2.62-5.78-1.33-9.81-2.9-12.06-4.71-2.61-1.99-3.93-5.04-3.93-9.15s1.46-7.11,4.38-9.38c2.92-2.27,6.67-3.4,11.24-3.4,6.15,0,11.42,1.79,15.8,5.35l-4.02,5.61c-1.34-1.2-3.14-2.18-5.39-2.95-2.25-.76-4.48-1.13-6.67-1.13s-4.06.47-5.43,1.41c-1.37.94-2.06,2.26-2.06,3.94h.02Z"/>
    </g>
    <g>
      <path class="cls-3" d="M188.98,67.6c1.21-1.01,1.77-2.27,1.77-4.35V24.71h21.24v40.21c0,8.1-1.27,10.97-6.12,14.82-5.72,4.45-14.52,8.2-27.96,8.2s-22.21-3.74-27.93-8.2c-4.85-3.84-6.12-6.72-6.12-14.82V24.71h21.24v38.54c0,2.07.57,3.34,1.77,4.35,2.55,1.97,5.92,3.64,11.04,3.64s8.49-1.67,11.07-3.64Z"/>
      <path class="cls-3" d="M219.02,85.47v-16.19c9.3,1.31,20.48,1.97,27.1,1.97s9.97-.2,11.64-.66c1.11-.3,1.47-.6,1.47-1.11,0-.7-2.75-1.47-7.6-3.05l-17.6-5.76c-6.12-2.07-10.17-4.55-12.65-7.2-2.27-2.38-3.24-4.95-3.24-7.53v-6.66c0-4.65.72-10.47,6.72-12.68,5.61-2.07,15.89-2.88,27.56-2.88,8.76,0,17.36.57,24.09,1.97v16.19c-8.49-1.47-18.16-1.97-26.77-1.97-5.25,0-8,.2-9.4.7-.87.2-1.17.57-1.17,1.07,0,.6,1.87,1.21,5.52,2.38l19.27,6.42c6.32,2.07,10.58,4.45,13.15,6.92,2.37,2.27,3.34,4.45,3.34,6.99v7.4c0,5.92-3.22,11.62-9.35,13.81-5.53,1.97-15.64,1.85-25.21,1.85-10.27,0-19.87-.5-26.9-2h0Z"/>
      <path class="cls-3" d="M285.75,86.47V24.71h21.24v61.76h-21.24Z"/>
      <path class="cls-3" d="M336.07,86.47h-21.24V24.71h20.28l30.21,33.12V24.71h21.24v61.76h-20.24l-30.24-33.09v33.09h-.01Z"/>
      <path class="cls-3" d="M440.04,76.6h-24.89l-3.24,9.87h-21.85l20.84-61.76h33.59l20.84,61.76h-22.02l-3.28-9.87ZM420.3,60.78h14.62l-5.92-18.37h-2.78l-5.92,18.37h-.01Z"/>
    </g>
  </g>
</svg>