<svg width="549" height="173" viewBox="0 0 549 173" fill="none" xmlns="http://www.w3.org/2000/svg">
<path d="M157.801 107.977H166.879V161.474H157.801V107.977Z" fill="#48A4FF"/>
<path d="M221.804 107.977H230.776V161.474H221.048L190.748 122.412V161.474H181.671V107.977H190.748L221.804 147.9V107.977Z" fill="#48A4FF"/>
<path d="M265.888 116.192V161.474H256.811V116.192H240.61V107.977H282.067V116.192H265.867H265.888Z" fill="#48A4FF"/>
<path d="M329.554 107.977V116.402H300.999V130.628H326.592V138.612H300.999V152.943H330.416V161.474H291.9V107.977H329.533H329.554Z" fill="#48A4FF"/>
<path d="M373.197 142.015L387.191 161.493H375.697L362.901 143.444H351.092V161.493H342.015V107.996H361.934C370.024 107.996 375.844 109.362 379.374 112.093C382.904 114.825 384.69 119.259 384.69 125.394C384.69 134.219 380.866 139.767 373.197 142.015ZM362.249 135.333C367.271 135.333 370.738 134.577 372.629 133.043C374.52 131.509 375.466 128.924 375.466 125.268C375.466 121.612 374.52 119.385 372.629 118.103C370.738 116.821 367.334 116.191 362.459 116.191H351.092V135.333H362.249Z" fill="#48A4FF"/>
<path d="M437.957 107.977H446.929V161.474H437.2L406.9 122.412V161.474H397.823V107.977H406.9L437.957 147.9V107.977Z" fill="#48A4FF"/>
<path d="M499.418 107.977V116.402H470.862V130.628H496.455V138.612H470.862V152.943H500.279V161.474H461.764V107.977H499.397H499.418Z" fill="#48A4FF"/>
<path d="M532.133 116.192V161.474H523.056V116.192H506.855V107.977H548.313V116.192H532.112H532.133Z" fill="#48A4FF"/>
<path d="M75.0557 112.935C75.0557 109.699 77.1779 105.769 79.9936 101.777C80.1196 101.588 80.1617 101.357 80.0566 101.147C77.9974 96.1039 75.1397 90.8718 71.7778 85.5978C71.5256 85.2195 70.9793 85.1775 70.6852 85.5347C63.9823 93.8556 57.8047 102.828 57.8047 112.935C57.8047 125.269 64.6126 136.048 74.8036 141.994C75.1187 142.163 75.518 142.079 75.7071 141.784C78.7328 137.204 80.9391 132.119 82.1998 126.803C82.2629 126.53 82.1578 126.277 81.9267 126.109C77.7242 123.063 75.0347 118.293 75.0347 112.935H75.0557Z" fill="#48A4FF"/>
<path d="M69.844 149.012C65.2633 153.782 59.9472 157.039 55.3035 159.161C54.7362 159.434 54.0638 159.35 53.5595 158.993C38.9771 149.075 29.4165 132.476 29.4165 113.67C29.4165 97.1753 40.0066 81.9204 52.8241 65.0896C53.3284 64.3962 53.8747 63.7028 54.4 63.0094C54.5681 62.7783 54.9253 62.7573 55.1144 63.0094C58.6865 67.359 62.2165 71.8346 65.4944 76.3732C65.6205 76.5413 65.6205 76.7514 65.4944 76.9195C55.0724 90.6825 46.6465 102.933 46.6465 113.67C46.6465 129.135 56.144 142.457 69.6969 148.277C69.991 148.403 70.0541 148.781 69.844 149.012Z" fill="#48A4FF"/>
<path d="M136.012 149.328C134.73 149.895 132.398 150.946 129.351 152.228C127.292 153.131 124.771 154.035 121.997 155.128C117.479 156.808 111.995 158.489 106.259 160.086C97.3286 162.314 87.3268 164.1 76.9258 164.331C76.0433 164.331 75.539 165.318 76.0643 166.054L78.3126 169.122C78.5017 169.395 78.6908 169.71 78.6908 170.277C78.6908 171.328 77.8503 172.21 76.6947 172.21H59.99C58.0779 172.21 57.5736 169.584 59.3386 168.848C66.0205 166.012 72.135 161.872 77.346 156.577C88.0202 145.903 94.1348 131.174 94.1348 116.171C94.1348 91.5656 68.4159 61.8124 49.652 40.0858L49.4839 39.8967C47.6558 37.7114 45.8698 35.6312 44.1678 33.656C43.9367 33.3829 43.9157 32.9836 44.1258 32.6895L66.966 1.21321C67.2392 0.856003 67.7225 0.877015 67.9326 1.21321L118.068 70.1332C118.278 70.4484 118.236 71.0367 117.795 71.2889C115.798 72.1924 110.629 74.5037 103.8 76.3948C103.569 76.4579 103.338 76.5209 103.338 76.5209C102.54 76.7941 102.245 77.8026 102.245 78.2019C102.245 78.475 102.309 79.4836 103.485 80.072C105.734 81.1016 107.73 82.6565 109.222 84.7157C109.663 85.1779 132.692 116.927 132.692 116.927C132.965 117.243 132.839 117.789 132.377 118.02C130.717 119.029 122.711 122.117 118.11 123.252C117.353 123.504 116.891 124.387 116.891 124.996C116.891 125.605 117.206 126.425 118.11 126.866C120.316 127.896 121.976 129.051 123.594 130.921C123.594 130.921 133.848 145 136.18 148.151C136.495 148.614 136.453 149.097 135.991 149.328H136.012Z" fill="#1C4235"/>
<path d="M212.517 63.6824C213.988 62.4637 214.66 60.9298 214.66 58.4084V11.6562H240.421V60.4255C240.421 70.2592 238.887 73.7263 233.004 78.391C226.07 83.7911 215.396 88.3297 199.09 88.3297C182.785 88.3297 172.153 83.7911 165.219 78.391C159.335 73.7263 157.801 70.2382 157.801 60.4255V11.6562H183.562V58.3874C183.562 60.9088 184.256 62.4427 185.705 63.6614C188.794 66.0568 192.871 68.074 199.09 68.074C205.31 68.074 209.386 66.0568 212.517 63.6614V63.6824Z" fill="#1C4235"/>
<path d="M248.973 85.3244V65.699C260.257 67.2959 273.81 68.0944 281.837 68.0944C289.863 68.0944 293.919 67.8423 295.957 67.2959C297.302 66.9387 297.743 66.5605 297.743 65.9512C297.743 65.0897 294.402 64.1651 288.539 62.253L267.191 55.277C259.774 52.7555 254.857 49.7508 251.852 46.5569C249.1 43.6782 247.923 40.5474 247.923 37.4376V29.3689C247.923 23.7377 248.805 16.6776 256.076 13.988C262.863 11.4666 275.344 10.5 289.506 10.5C300.138 10.5 310.56 11.1934 318.713 12.8954V32.5208C308.417 30.7347 296.692 30.1254 286.249 30.1254C279.882 30.1254 276.541 30.3775 274.86 30.9869C273.81 31.239 273.453 31.6803 273.453 32.2896C273.453 33.0251 275.722 33.7605 280.156 35.1683L303.521 42.9638C311.191 45.4853 316.339 48.364 319.469 51.3687C322.348 54.1213 323.525 56.7688 323.525 59.8576V68.8298C323.525 75.995 319.616 82.929 312.178 85.5766C305.475 87.9719 293.225 87.8249 281.605 87.8249C269.145 87.8249 257.504 87.2155 248.994 85.3874L248.973 85.3244Z" fill="#1C4235"/>
<path d="M329.87 86.5647V11.6562H355.631V86.5437H329.87V86.5647Z" fill="#1C4235"/>
<path d="M390.889 86.5647H365.128V11.6562H389.713L426.337 51.8105V11.6562H452.098V86.5437H427.556L390.889 46.4104V86.5437V86.5647Z" fill="#1C4235"/>
<path d="M516.962 74.5863H486.788L482.859 86.5632H456.363L481.64 11.6758H522.383L547.661 86.5632H520.954L516.983 74.5863H516.962ZM493.029 55.4021H510.763L503.598 33.1292H500.236L493.071 55.4021H493.029Z" fill="#1C4235"/>
<path d="M18.2173 114.429C18.0912 134.054 27.8619 151.83 43.1378 162.462C43.474 162.694 43.3899 163.219 42.9697 163.303C35.6154 165.047 28.1561 165.719 21.6843 165.866C21.3271 165.866 20.9699 165.719 20.7178 165.446C18.1543 162.61 15.8009 159.605 13.6997 156.432C5.67302 144.392 0.987305 129.936 0.987305 114.408C0.987305 92.0506 15.2126 71.1014 33.8083 46.0339C34.5648 45.0253 35.3212 43.9957 36.0567 42.9661C36.5399 42.3147 37.5065 42.2727 38.0318 42.9031C39.1034 44.1428 40.1961 45.4455 41.3097 46.7693L41.5408 47.0635C43.558 49.4168 45.6802 51.8753 47.8445 54.3967C48.2227 54.838 48.2647 55.4894 47.9285 55.9516C39.2295 68.2438 18.3224 93.1012 18.1753 114.408L18.2173 114.429Z" fill="#48A4FF"/>
</svg>
