<?xml version="1.0" encoding="UTF-8"?>
<svg id="Capa_1" data-name="Capa 1" xmlns="http://www.w3.org/2000/svg" viewBox="0 0 549 173">
  <defs>
    <style>
      .cls-1 {
        fill: #fff;
      }

      .cls-2 {
        fill: #2cd1b1;
      }
    </style>
  </defs>
  <g>
    <path class="cls-1" d="M188.98,67.57c1.21-1.01,1.77-2.27,1.77-4.35V24.68h21.24v40.21c0,8.1-1.27,10.97-6.12,14.82-5.72,4.45-14.52,8.2-27.96,8.2s-22.21-3.74-27.93-8.2c-4.85-3.84-6.12-6.72-6.12-14.82V24.68h21.24v38.54c0,2.07.57,3.34,1.77,4.35,2.55,1.97,5.92,3.64,11.04,3.64s8.49-1.67,11.07-3.64Z"/>
    <path class="cls-1" d="M219.02,85.43v-16.19c9.3,1.31,20.48,1.97,27.1,1.97s9.97-.2,11.64-.66c1.11-.3,1.47-.6,1.47-1.11,0-.7-2.75-1.47-7.6-3.05l-17.6-5.76c-6.12-2.07-10.17-4.55-12.65-7.2-2.27-2.38-3.24-4.95-3.24-7.53v-6.66c0-4.65.72-10.47,6.72-12.68,5.61-2.07,15.89-2.88,27.56-2.88,8.76,0,17.36.57,24.09,1.97v16.19c-8.49-1.47-18.16-1.97-26.77-1.97-5.25,0-8,.2-9.4.7-.87.2-1.17.57-1.17,1.07,0,.6,1.87,1.21,5.52,2.38l19.27,6.42c6.32,2.07,10.58,4.45,13.15,6.92,2.37,2.27,3.34,4.45,3.34,6.99v7.4c0,5.92-3.22,11.62-9.35,13.81-5.53,1.97-15.64,1.85-25.21,1.85-10.27,0-19.87-.5-26.9-2h0Z"/>
    <path class="cls-1" d="M285.75,86.44V24.68h21.24v61.76h-21.24Z"/>
    <path class="cls-1" d="M336.07,86.44h-21.24V24.68h20.28l30.21,33.12V24.68h21.24v61.76h-20.24l-30.24-33.09v33.09h-.01Z"/>
    <path class="cls-1" d="M440.04,76.57h-24.89l-3.24,9.87h-21.85l20.84-61.76h33.59l20.84,61.76h-22.02l-3.28-9.87ZM420.3,60.75h14.62l-5.92-18.37h-2.78l-5.92,18.37h-.01Z"/>
  </g>
  <g>
    <path class="cls-2" d="M155.58,113.31v12.08h19.57v6.85h-19.57v18.2h-7.49v-44.06h29.41l-.09,6.94h-21.83Z"/>
    <path class="cls-2" d="M204.38,143.85c3.42,0,6.15-1.17,8.16-3.51,2.01-2.34,3.02-5.52,3.02-9.55v-24.42h7.49v24.69c0,6.25-1.72,11.11-5.14,14.6-3.42,3.48-7.94,5.23-13.54,5.23s-10.1-1.75-13.54-5.23c-3.42-3.48-5.14-8.34-5.14-14.6v-24.69h7.4v24.42c0,4.08,1.02,7.27,3.07,9.55,1.98,2.34,4.73,3.51,8.21,3.51h0Z"/>
    <path class="cls-2" d="M267.9,106.36h7.4v44.06h-8.03l-24.99-32.17v32.17h-7.49v-44.06h7.49l25.62,32.89v-32.89Z"/>
    <path class="cls-2" d="M302.72,106.36c7.88,0,13.95,1.91,18.22,5.72,4.27,3.82,6.4,9.18,6.4,16.08s-2.1,12.49-6.31,16.4c-4.21,3.91-10.5,5.86-18.85,5.86h-14.61v-44.06h15.15ZM302.46,113.22h-7.4v30.19h8.21c5.42,0,9.53-1.28,12.36-3.83,2.83-2.55,4.24-6.29,4.24-11.22,0-10.09-5.8-15.13-17.41-15.13h0Z"/>
    <path class="cls-2" d="M343.14,140.43l-4.42,10h-7.94l19.48-44.06h7.94l19.4,44.06h-7.94l-4.42-10h-22.1ZM362.27,133.49l-8.03-18.11-8.03,18.11h16.06Z"/>
    <path class="cls-2" d="M416.3,138.27l4.78,4.86c-4.57,5.23-10.22,7.84-16.96,7.84s-12.23-2.15-16.65-6.44c-4.42-4.29-6.64-9.71-6.64-16.26s2.26-12.09,6.77-16.44c4.51-4.35,10.19-6.54,17.05-6.54s12.42,2.53,17.05,7.57l-4.7,5.14c-2.1-2.04-4.1-3.45-5.96-4.23-1.86-.78-4.06-1.17-6.59-1.17-4.51,0-8.28,1.44-11.32,4.32-3.04,2.88-4.55,6.55-4.55,10.99s1.5,8.11,4.51,11.18c3.01,3.07,6.59,4.6,10.73,4.6,2.53,0,4.71-.42,6.54-1.26,1.83-.84,3.8-2.22,5.92-4.14h0Z"/>
    <path class="cls-2" d="M430.2,106.36h7.49v44.06h-7.49v-44.06Z"/>
    <path class="cls-2" d="M470.26,150.88c-6.62,0-12.15-2.17-16.6-6.54-4.45-4.35-6.68-9.77-6.68-16.26s2.23-11.91,6.68-16.26c4.45-4.35,9.98-6.54,16.6-6.54s12.14,2.18,16.6,6.54c4.45,4.35,6.68,9.77,6.68,16.26s-2.26,11.9-6.77,16.22c-4.51,4.38-10.01,6.58-16.52,6.58h.01ZM470.26,112.04c-4.39,0-8.09,1.56-11.1,4.69-3.01,3.13-4.51,6.91-4.51,11.36s1.5,8.21,4.51,11.31c3.01,3.1,6.71,4.64,11.1,4.64s8.09-1.54,11.1-4.64c3.01-3.1,4.51-6.86,4.51-11.31s-1.5-8.23-4.51-11.36c-3.01-3.13-6.71-4.69-11.1-4.69ZM471.43,102.67h-6.49l6.68-9.1,7.49,3.07-7.66,6.04h-.01Z"/>
    <path class="cls-2" d="M536.02,106.36h7.4v44.06h-8.03l-24.99-32.17v32.17h-7.49v-44.06h7.49l25.62,32.89v-32.89Z"/>
  </g>
  <path class="cls-1" d="M125.87,138.23c-1.06.47-2.99,1.33-5.49,2.39-1.7.74-3.77,1.49-6.07,2.39-3.72,1.38-8.24,2.77-12.98,4.1-7.37,1.84-15.6,3.31-24.18,3.49-.73,0-1.14.82-.71,1.41l1.86,2.54c.16.22.31.48.31.95,0,.86-.69,1.6-1.64,1.6h-13.77c-1.58,0-1.99-2.16-.54-2.78,5.51-2.34,10.54-5.75,14.85-10.12,8.8-8.8,13.84-20.95,13.84-33.33,0-20.28-21.2-44.82-36.68-62.75l-.13-.16c-1.39-1.66-2.74-3.24-4.05-4.75-.4-.46-.42-1.12-.06-1.61l18.5-25.53c.22-.29.62-.28.8,0l41.35,56.84c.18.27.13.75-.22.95-1.64.75-5.91,2.66-11.54,4.21-.19.05-.37.11-.37.11-.65.23-.91,1.05-.91,1.38.01.23.05,1.05,1.01,1.55,1.86.85,3.51,2.13,4.74,3.83.36.37,19.36,26.56,19.36,26.56.22.27.12.71-.27.89-1.38.83-7.98,3.38-11.76,4.32-.62.21-1,.94-1,1.44s.25,1.18,1,1.55c1.81.85,3.19,1.8,4.52,3.35,0,0,8.46,11.6,10.38,14.2.25.37.22.79-.16.97Z"/>
  <path class="cls-2" d="M82.57,110.89c0,10.06-4.11,19.93-11.29,27.11-5.12,5.21-11.52,8.74-18.54,10.3-.35.08-.58.13-.87.16-1.33.12-2.57-.47-3.4-1.58L14.54,100.16c-1.69-2.32-2.08-5.31-1.12-7.92.27-.74.64-1.44,1.11-2.09l.94-1.31c.07-.1.17-.17.27-.24.41-.28,1.02-.21,1.33.24l21.33,29.36c1.27,1.75,3.88,1.74,5.14,0l.02-.04c.8-1.11.79-2.61,0-3.71l-19.98-27.44c-1.8-2.49-1.99-5.74-.59-8.4.17-.31.35-.62.57-.91l1.16-1.64c.1-.13.22-.24.36-.3.41-.21.93-.11,1.23.3l21.34,29.29c1.21,1.67,3.51,1.93,4.92.44.58-.62.88-1.41.88-2.2,0-.66-.21-1.32-.6-1.86l-19.97-27.41c-1.8-2.47-2.02-5.69-.68-8.35.18-.36.39-.71.63-1.05l1.17-1.63c.11-.13.23-.23.36-.3.4-.22.94-.11,1.23.3l21.42,29.4c1.26,1.73,3.84,1.73,5.11,0,.41-.56.6-1.21.6-1.87s-.19-1.31-.6-1.86l-19.68-27c-1.96-2.68-2.19-6.23-.7-9.11.19-.37.41-.74.66-1.09,0,0,.7-.87,1.23-1.52.3-.39.88-.39,1.2-.02.97,1.14,1.96,2.3,2.97,3.49l.19.24c14.58,16.86,34.54,39.97,34.54,56.98h0Z"/>
  <path class="cls-2" d="M41.77,149.17c-.04.08-.08.16-.15.23-.21.25-.56.39-.92.3-1.43-.33-2.82-.71-4.17-1.18-.07-.02-.16-.06-.23-.08-1.12-.4-2.21-.87-3.26-1.4-10.96-5.38-18.56-14.01-21.95-26.5-.28-1,.47-1.99,1.51-1.99h1.18c3.54,0,6.72,2.1,8.28,5.29,2.14,4.39,5.22,8.21,8.96,11.19.5.39,1.47,1.08,1.92,1.38.18.12.34.27.47.44l8.27,11.34c.24.33.24.7.08.99Z"/>
</svg>