<?xml version="1.0" encoding="UTF-8"?>
<svg id="Capa_1" data-name="Capa 1" xmlns="http://www.w3.org/2000/svg" viewBox="0 0 549 173">
  <defs>
    <style>
      .cls-1 {
        fill: #fff;
      }

      .cls-2 {
        fill: #fced36;
      }
    </style>
  </defs>
  <g>
    <path class="cls-1" d="M125.88,138.23c-1.06.47-2.99,1.33-5.49,2.39-1.7.74-3.77,1.49-6.07,2.39-3.72,1.38-8.24,2.77-12.98,4.1-7.37,1.84-15.61,3.31-24.19,3.49-.73.01-1.14.82-.71,1.41l1.86,2.54c.16.22.31.48.31.95,0,.86-.69,1.6-1.64,1.6h-13.77c-1.58,0-2-2.16-.54-2.78,5.51-2.34,10.55-5.75,14.85-10.12,8.8-8.8,13.84-20.95,13.84-33.33,0-20.28-21.2-44.82-36.69-62.75l-.13-.16c-1.51-1.8-2.97-3.51-4.38-5.14-.2-.23-.21-.56-.03-.8l18.81-25.95c.22-.29.62-.28.8,0l41.35,56.84c.18.27.13.75-.22.95-1.64.75-5.91,2.66-11.54,4.21-.19.05-.38.11-.38.11-.65.23-.91,1.05-.91,1.38.01.23.05,1.05,1.02,1.55,1.86.85,3.5,2.13,4.74,3.83.36.37,19.36,26.56,19.36,26.56.22.27.12.71-.27.89-1.38.83-7.98,3.38-11.76,4.32-.62.21-1,.94-1,1.44s.25,1.18,1,1.55c1.81.85,3.19,1.8,4.52,3.35,0,0,8.46,11.6,10.38,14.2.25.37.22.79-.16.97Z"/>
    <path class="cls-2" d="M69.72,80.96c-1.81-2.59-3.72-5.16-5.69-7.7-5.31-6.85-11.02-13.48-16.1-19.35l-.21-.24c-1.11-1.32-2.2-2.6-3.27-3.84-.16-.19-.45-.17-.6.03l-16.78,23.08c-.18.27-.13.75.22.96,1.64.75,5.9,2.66,11.54,4.21.19.04.38.11.38.11.65.23.91,1.04.89,1.38,0,.23-.04,1.05-1,1.55-1.86.85-3.52,2.13-4.74,3.83-.38.37-19.37,26.55-19.37,26.55-.22.27-.12.73.27.91,1.38.83,7.98,3.37,11.76,4.32.6.21,1,.94,1,1.44s-.27,1.18-1,1.54c-1.81.86-3.2,1.81-4.53,3.36,0,0-5.31,7.26-8.47,11.59-.82,1.14-1.5,2.07-1.9,2.61-.25.37-.22.77.16.96,1.06.48,2.99,1.33,5.49,2.39,1.33.59,2.89,1.17,4.61,1.84.47.18.96.37,1.45.57,3.74,1.38,8.26,2.76,12.99,4.1,3,.75,6.15,1.44,9.39,2,.22.04.45.05.68.04,6.44-.45,12.53-2.48,17.83-5.89,2.32-1.49,4.5-3.25,6.47-5.26.22-.22.43-.44.63-.67,6.78-7.12,10.66-16.69,10.66-26.45,0-8.9-5.46-19.46-12.75-29.93Z"/>
  </g>
  <g>
    <path class="cls-2" d="M179.23,106.42v6.97h-23.63v11.77h21.18v6.61h-21.18v11.86h24.35v7.06h-31.87v-44.27h31.14Z"/>
    <path class="cls-2" d="M222.78,106.42h7.42v44.27h-8.06l-25.08-32.32v32.32h-7.51v-44.27h7.51l25.71,33.04v-33.04Z"/>
    <path class="cls-2" d="M273.66,106.42v6.97h-23.63v11.77h21.18v6.61h-21.18v11.86h24.35v7.06h-31.87v-44.27h31.14Z"/>
    <path class="cls-2" d="M309.78,134.58l11.59,16.11h-9.51l-10.59-14.94h-9.78v14.94h-7.51v-44.27h16.48c6.7,0,11.51,1.13,14.44,3.4,2.93,2.26,4.39,5.93,4.39,11,0,7.3-3.17,11.89-9.51,13.76ZM300.73,129.05c4.16,0,7.03-.63,8.6-1.9,1.57-1.27,2.35-3.41,2.35-6.43s-.78-4.87-2.35-5.93c-1.57-1.06-4.38-1.58-8.42-1.58h-9.42v15.84h9.23Z"/>
    <path class="cls-2" d="M360.84,129.15h7.42v15.12c-4.17,4.65-10.14,6.97-17.93,6.97-6.58,0-12.07-2.17-16.48-6.52-4.41-4.35-6.61-9.78-6.61-16.3s2.25-12,6.75-16.43c4.49-4.44,9.94-6.65,16.34-6.65s11.71,1.84,15.93,5.52l-3.98,5.7c-3.08-2.59-6.85-3.89-11.32-3.89s-8.31,1.46-11.36,4.39c-3.05,2.93-4.57,6.72-4.57,11.36s1.46,8.41,4.39,11.27c2.93,2.87,6.56,4.3,10.91,4.3s7.73-.91,10.5-2.72v-12.13Z"/>
    <path class="cls-2" d="M378.13,106.42h7.51v44.27h-7.51v-44.27ZM385.01,102.71h-6.52l6.7-9.14,7.51,3.08-7.69,6.07Z"/>
    <path class="cls-2" d="M404.12,140.64l-4.44,10.05h-7.97l19.56-44.27h7.97l19.46,44.27h-7.97l-4.44-10.05h-22.18ZM423.31,133.67l-8.06-18.2-8.06,18.2h16.11Z"/>
  </g>
  <g>
    <path class="cls-1" d="M188.98,67.57c1.21-1.01,1.77-2.27,1.77-4.35V24.68h21.24v40.21c0,8.1-1.27,10.97-6.12,14.82-5.72,4.45-14.52,8.2-27.96,8.2s-22.21-3.74-27.93-8.2c-4.85-3.84-6.12-6.72-6.12-14.82V24.68h21.24v38.54c0,2.07.57,3.34,1.77,4.35,2.55,1.97,5.92,3.64,11.04,3.64s8.49-1.67,11.07-3.64Z"/>
    <path class="cls-1" d="M219.02,85.43v-16.19c9.3,1.31,20.48,1.97,27.1,1.97s9.97-.2,11.64-.66c1.11-.3,1.47-.6,1.47-1.11,0-.7-2.75-1.47-7.6-3.05l-17.6-5.76c-6.12-2.07-10.17-4.55-12.65-7.2-2.27-2.38-3.24-4.95-3.24-7.53v-6.66c0-4.65.72-10.47,6.72-12.68,5.61-2.07,15.89-2.88,27.56-2.88,8.76,0,17.36.57,24.09,1.97v16.19c-8.49-1.47-18.16-1.97-26.77-1.97-5.25,0-8,.2-9.4.7-.87.2-1.17.57-1.17,1.07,0,.6,1.87,1.21,5.52,2.38l19.27,6.42c6.32,2.07,10.58,4.45,13.15,6.92,2.37,2.27,3.34,4.45,3.34,6.99v7.4c0,5.92-3.22,11.62-9.35,13.81-5.53,1.97-15.64,1.85-25.21,1.85-10.27,0-19.87-.5-26.9-2h0Z"/>
    <path class="cls-1" d="M285.75,86.44V24.68h21.24v61.76h-21.24Z"/>
    <path class="cls-1" d="M336.07,86.44h-21.24V24.68h20.28l30.21,33.12V24.68h21.24v61.76h-20.24l-30.24-33.09v33.09h-.01Z"/>
    <path class="cls-1" d="M440.04,76.57h-24.89l-3.24,9.87h-21.85l20.84-61.76h33.59l20.84,61.76h-22.02l-3.28-9.87ZM420.3,60.75h14.62l-5.92-18.37h-2.78l-5.92,18.37h-.01Z"/>
  </g>
</svg>