<?xml version="1.0" encoding="UTF-8"?>
<svg id="Capa_1" data-name="Capa 1" xmlns="http://www.w3.org/2000/svg" viewBox="0 0 549 173">
  <defs>
    <style>
      .cls-1 {
        fill: #f9742b;
      }

      .cls-2 {
        fill: #fff;
      }
    </style>
  </defs>
  <g>
    <path class="cls-1" d="M156.37,117.52c0,1.87.7,3.24,2.1,4.08,1.4,1.03,4.38,2.08,8.95,3.17,4.8,1.14,8.32,2.72,10.55,4.71,2.22,1.99,3.33,4.86,3.33,8.6s-1.48,7.09-4.43,9.51c-2.95,2.42-6.8,3.62-11.55,3.62-6.88,0-13.09-2.42-18.63-7.25l4.75-5.61c4.63,3.93,9.31,5.89,14.06,5.89,2.38,0,4.29-.53,5.75-1.58,1.46-1.05,2.19-2.43,2.19-4.12s-.66-3.02-1.96-3.99c-1.31-.97-3.64-1.84-6.99-2.62-5.78-1.33-9.81-2.9-12.06-4.71-2.61-1.99-3.93-5.04-3.93-9.15s1.46-7.11,4.38-9.38c2.92-2.27,6.67-3.4,11.24-3.4,6.15,0,11.42,1.79,15.8,5.35l-4.02,5.61c-1.34-1.2-3.14-2.18-5.39-2.95-2.25-.76-4.48-1.13-6.67-1.13s-4.06.47-5.43,1.41c-1.37.94-2.06,2.26-2.06,3.94h.02Z"/>
    <path class="cls-1" d="M222.03,106.38v6.98h-23.84v11.78h21.37v6.61h-21.37v11.87h24.57v7.06h-32.15v-44.3h31.42Z"/>
    <path class="cls-1" d="M247.79,106.38c6.7,0,11.62,1.29,14.75,3.85,3.14,2.57,4.7,6.54,4.7,11.91s-1.58,9.23-4.75,11.74c-3.17,2.51-8.04,3.76-14.61,3.76h-7.85v13.04h-7.58v-44.3h15.34ZM248.7,130.94c4.02,0,6.83-.76,8.45-2.27,1.62-1.51,2.42-3.9,2.42-7.15,0-3.02-.95-5.16-2.83-6.43-1.88-1.27-4.93-1.9-9.14-1.9h-7.58v17.76h8.68Z"/>
    <path class="cls-1" d="M307.62,106.38v6.98h-23.84v11.78h21.37v6.61h-21.37v11.87h24.57v7.06h-32.15v-44.3h31.42Z"/>
    <path class="cls-1" d="M318.03,150.68v-44.3h7.58v37.24h20.37v7.06h-27.95Z"/>
    <path class="cls-1" d="M354.19,106.38h7.58v44.3h-7.58v-44.3Z"/>
    <path class="cls-1" d="M394.74,151.13c-6.7,0-12.31-2.18-16.8-6.57-4.51-4.38-6.76-9.83-6.76-16.35s2.25-11.97,6.76-16.35c4.51-4.38,10.1-6.57,16.8-6.57s12.29,2.19,16.8,6.57c4.51,4.38,6.76,9.83,6.76,16.35s-2.28,11.96-6.85,16.31c-4.57,4.41-10.13,6.61-16.72,6.61h.01ZM394.74,112.09c-4.45,0-8.19,1.57-11.24,4.71-3.05,3.14-4.57,6.95-4.57,11.42s1.52,8.26,4.57,11.37c3.05,3.11,6.79,4.66,11.24,4.66s8.19-1.55,11.24-4.66c3.05-3.11,4.57-6.9,4.57-11.37s-1.52-8.28-4.57-11.42c-3.05-3.14-6.79-4.71-11.24-4.71Z"/>
    <path class="cls-1" d="M433.83,117.52c0,1.87.7,3.24,2.1,4.08,1.4,1.03,4.38,2.08,8.95,3.17,4.8,1.14,8.32,2.72,10.55,4.71,2.22,1.99,3.33,4.86,3.33,8.6s-1.48,7.09-4.43,9.51c-2.95,2.42-6.8,3.62-11.55,3.62-6.88,0-13.09-2.42-18.63-7.25l4.75-5.61c4.63,3.93,9.31,5.89,14.06,5.89,2.38,0,4.29-.53,5.75-1.58,1.46-1.05,2.19-2.43,2.19-4.12s-.66-3.02-1.96-3.99c-1.31-.97-3.64-1.84-6.99-2.62-5.78-1.33-9.81-2.9-12.06-4.71-2.61-1.99-3.93-5.04-3.93-9.15s1.46-7.11,4.38-9.38c2.92-2.27,6.67-3.4,11.24-3.4,6.15,0,11.42,1.79,15.8,5.35l-4.02,5.61c-1.34-1.2-3.14-2.18-5.39-2.95-2.25-.76-4.48-1.13-6.67-1.13s-4.06.47-5.43,1.41c-1.37.94-2.06,2.26-2.06,3.94h.02Z"/>
  </g>
  <g>
    <path class="cls-1" d="M65.39,75.03c.22.29.05.73-.33.77-.79.08-1.54.23-2.25.45-3.32.97-5.81,3.13-7.36,5.14-.29.37-.67.65-1.13.8l-9.13,2.74c-1.82.54-3.04,2.12-3.11,4-.09,1.89,1.01,3.54,2.78,4.23l9.68,3.75c.15.06.23.22.19.37-.45,1.54-1.35,3.3-3,4.29-2.95,1.75-7.25.28-10.35-1.26-8.8-4.39-14.51-14.8-17.36-21.9-.86-2.16-.52-4.64.92-6.48.58-.74,1.17-1.47,1.75-2.2.26-.33.77-.29.98.06l7.24,11.27c.16.24.53.08.47-.19l-3-14c-.44-2.02.1-4.12,1.45-5.69.19-.22.38-.44.56-.65.27-.3.74-.27.96.07l6.71,10.46c.16.24.53.08.47-.19l-2.7-12.56c-.44-2.04.12-4.17,1.49-5.75.84-.97,1.71-1.96,2.22-2.55.23-.27.64-.27.87,0,1.02,1.2,2.08,2.43,3.16,3.7l.19.24c5.54,6.37,11.85,13.63,17.56,21.12l.04-.02Z"/>
    <path class="cls-1" d="M82.57,110.89c0,10.06-4.13,19.93-11.35,27.11-6.34,6.41-14.63,10.27-23.63,11.1-1.18.11-2.38.16-3.58.16-10.26,0-19.93-4.01-27.25-11.29-5.01-4.92-8.47-11-10.15-17.68-.07-.28.23-.52.49-.39,6.23,3.26,15.05,6.65,26.71,8.41.22.04.36.25.28.47-.86,1.98-2.48,4.76-5.47,7.78,1.98,1.93,5.25,1.98,7.17-.02,4.36-4.57,4.96-10.7,5.03-12.43.01-.27-.18-.5-.45-.52l-2.25-.27c-13.07-1.52-22.65-5.25-29.02-8.65-2.41-1.29-3.78-3.87-3.48-6.58.11-.98.29-2.06.57-3.2.09-.36.51-.53.84-.35l11.52,6.77c.26.14.52-.16.34-.39l-7.89-9.72c-1.62-1.99-1.91-4.74-.75-7.02l.02-.04v-.04c.26-.51.52-1,.79-1.51.18-.34.66-.4.91-.12l8.34,9.04c.19.22.55,0,.44-.27l-4.75-11.7c-.83-2.04-.6-4.35.63-6.19.53-.8,1.08-1.58,1.63-2.38.24-.34.77-.29.92.1,3.46,8.34,9.74,19.15,19.78,24.15,3.55,1.76,6.77,2.65,9.65,2.65,2.22,0,4.23-.53,6.01-1.6,4.3-2.55,5.95-7.51,6.06-10.98l.04-1.34c0-.36-.21-.69-.55-.82l-9.27-3.59c-.28-.11-.27-.51.02-.59l7.31-2.21c.29-.08.55-.29.69-.56.7-1.25,3.15-4.94,7.55-4.94,1.25,0,2.71.41,3.5.68.38.12.69.36.91.69,6.76,9.92,11.69,19.85,11.69,28.27h-.01Z"/>
  </g>
  <path class="cls-2" d="M125.88,138.23c-1.06.47-2.99,1.33-5.49,2.39-1.7.74-3.77,1.49-6.07,2.39-3.72,1.38-8.24,2.77-12.98,4.1-7.37,1.84-15.61,3.31-24.19,3.49-.73.01-1.14.82-.71,1.41l1.86,2.54c.16.22.31.48.31.95,0,.86-.69,1.6-1.64,1.6h-13.77c-1.58,0-2-2.16-.54-2.78,5.51-2.34,10.55-5.75,14.85-10.12,8.8-8.8,13.84-20.95,13.84-33.33,0-20.28-21.2-44.82-36.69-62.75l-.13-.16c-1.51-1.8-2.97-3.51-4.38-5.14-.2-.23-.21-.56-.03-.8l18.81-25.95c.22-.29.62-.28.8,0l41.35,56.84c.18.27.13.75-.22.95-1.64.75-5.91,2.66-11.54,4.21-.19.05-.38.11-.38.11-.65.23-.91,1.05-.91,1.38.01.23.05,1.05,1.02,1.55,1.86.85,3.5,2.13,4.74,3.83.36.37,19.36,26.56,19.36,26.56.22.27.12.71-.27.89-1.38.83-7.98,3.38-11.76,4.32-.62.21-1,.94-1,1.44s.25,1.18,1,1.55c1.81.85,3.19,1.8,4.52,3.35,0,0,8.46,11.6,10.38,14.2.25.37.22.79-.16.97Z"/>
  <g>
    <path class="cls-2" d="M188.98,67.6c1.21-1.01,1.77-2.27,1.77-4.35V24.71h21.24v40.21c0,8.1-1.27,10.97-6.12,14.82-5.72,4.45-14.52,8.2-27.96,8.2s-22.21-3.74-27.93-8.2c-4.85-3.84-6.12-6.72-6.12-14.82V24.71h21.24v38.54c0,2.07.57,3.34,1.77,4.35,2.55,1.97,5.92,3.64,11.04,3.64s8.49-1.67,11.07-3.64Z"/>
    <path class="cls-2" d="M219.02,85.47v-16.19c9.3,1.31,20.48,1.97,27.1,1.97s9.97-.2,11.64-.66c1.11-.3,1.47-.6,1.47-1.11,0-.7-2.75-1.47-7.6-3.05l-17.6-5.76c-6.12-2.07-10.17-4.55-12.65-7.2-2.27-2.38-3.24-4.95-3.24-7.53v-6.66c0-4.65.72-10.47,6.72-12.68,5.61-2.07,15.89-2.88,27.56-2.88,8.76,0,17.36.57,24.09,1.97v16.19c-8.49-1.47-18.16-1.97-26.77-1.97-5.25,0-8,.2-9.4.7-.87.2-1.17.57-1.17,1.07,0,.6,1.87,1.21,5.52,2.38l19.27,6.42c6.32,2.07,10.58,4.45,13.15,6.92,2.37,2.27,3.34,4.45,3.34,6.99v7.4c0,5.92-3.22,11.62-9.35,13.81-5.53,1.97-15.64,1.85-25.21,1.85-10.27,0-19.87-.5-26.9-2h0Z"/>
    <path class="cls-2" d="M285.75,86.47V24.71h21.24v61.76h-21.24Z"/>
    <path class="cls-2" d="M336.07,86.47h-21.24V24.71h20.28l30.21,33.12V24.71h21.24v61.76h-20.24l-30.24-33.09v33.09h-.01Z"/>
    <path class="cls-2" d="M440.04,76.6h-24.89l-3.24,9.87h-21.85l20.84-61.76h33.59l20.84,61.76h-22.02l-3.28-9.87ZM420.3,60.78h14.62l-5.92-18.37h-2.78l-5.92,18.37h-.01Z"/>
  </g>
</svg>