<?xml version="1.0" encoding="UTF-8"?>
<svg id="Capa_1" data-name="Capa 1" xmlns="http://www.w3.org/2000/svg" viewBox="0 0 549 173">
  <defs>
    <style>
      .cls-1 {
        fill: #2294f2;
      }

      .cls-2 {
        fill: #fff;
      }
    </style>
  </defs>
  <g>
    <path class="cls-1" d="M147.03,106.37h7.52v44.3h-7.52v-44.3Z"/>
    <path class="cls-1" d="M200.02,106.37h7.43v44.3h-8.06l-25.09-32.34v32.34h-7.52v-44.3h7.52l25.72,33.07v-33.07Z"/>
    <path class="cls-1" d="M236.53,113.17v37.51h-7.52v-37.51h-13.41v-6.8h34.33v6.8h-13.41.01Z"/>
    <path class="cls-1" d="M289.25,106.37v6.98h-23.64v11.78h21.19v6.61h-21.19v11.87h24.37v7.06h-31.89v-44.3h31.16Z"/>
    <path class="cls-1" d="M325.39,134.55l11.59,16.12h-9.51l-10.6-14.95h-9.79v14.95h-7.52v-44.3h16.49c6.7,0,11.52,1.13,14.45,3.4,2.93,2.27,4.4,5.93,4.4,11.01,0,7.31-3.17,11.9-9.51,13.77ZM316.33,129.03c4.16,0,7.03-.63,8.6-1.9,1.57-1.27,2.36-3.41,2.36-6.43s-.79-4.88-2.36-5.93c-1.57-1.06-4.38-1.58-8.43-1.58h-9.42v15.86h9.24v-.02Z"/>
    <path class="cls-1" d="M379.01,106.37h7.43v44.3h-8.06l-25.09-32.34v32.34h-7.52v-44.3h7.52l25.73,33.07v-33.07Z"/>
    <path class="cls-1" d="M429.92,106.37v6.98h-23.64v11.78h21.19v6.61h-21.19v11.87h24.37v7.06h-31.89v-44.3h31.16Z"/>
    <path class="cls-1" d="M457,113.17v37.51h-7.52v-37.51h-13.41v-6.8h34.33v6.8h-13.41.01Z"/>
  </g>
  <path class="cls-1" d="M75.61,108.22c0-2.66,1.75-5.91,4.07-9.2.11-.16.13-.35.06-.52-1.69-4.16-4.05-8.48-6.82-12.83-.21-.31-.66-.34-.89-.05-5.52,6.86-10.63,14.26-10.63,22.6,0,10.17,5.62,19.07,14.01,23.96.25.15.59.07.75-.18,2.5-3.77,4.32-7.98,5.36-12.36.05-.22-.04-.44-.22-.57-3.46-2.51-5.68-6.44-5.68-10.86h-.01Z"/>
  <path class="cls-1" d="M71.32,137.98c-3.77,3.94-8.16,6.63-11.99,8.37-.47.22-1.02.16-1.44-.13-12.02-8.17-19.91-21.87-19.91-37.37,0-13.6,8.74-26.19,19.31-40.06.42-.57.86-1.14,1.29-1.72.15-.19.44-.21.59-.01,2.94,3.59,5.85,7.28,8.56,11.01.1.13.1.31,0,.45-8.6,11.34-15.55,21.45-15.55,30.31,0,12.76,7.83,23.75,19.02,28.53.24.11.3.41.12.6h0Z"/>
  <path class="cls-2" d="M125.88,138.23c-1.06.47-2.99,1.33-5.49,2.39-1.7.74-3.77,1.49-6.07,2.39-3.72,1.38-8.24,2.77-12.98,4.1-7.37,1.84-15.61,3.31-24.19,3.49-.73.01-1.14.82-.71,1.41l1.86,2.54c.16.22.31.48.31.95,0,.86-.69,1.6-1.64,1.6h-13.77c-1.58,0-2-2.16-.54-2.78,5.51-2.34,10.55-5.75,14.85-10.12,8.8-8.8,13.84-20.95,13.84-33.33,0-20.28-21.2-44.82-36.69-62.75l-.13-.16c-1.51-1.8-2.97-3.51-4.38-5.14-.2-.23-.21-.56-.03-.8l18.81-25.95c.22-.29.62-.28.8,0l41.35,56.84c.18.27.13.75-.22.95-1.64.75-5.91,2.66-11.54,4.21-.19.05-.38.11-.38.11-.65.23-.91,1.05-.91,1.38.01.23.05,1.05,1.02,1.55,1.86.85,3.5,2.13,4.74,3.83.36.37,19.36,26.56,19.36,26.56.22.27.12.71-.27.89-1.38.83-7.98,3.38-11.76,4.32-.62.21-1,.94-1,1.44s.25,1.18,1,1.55c1.81.85,3.19,1.8,4.52,3.35,0,0,8.46,11.6,10.38,14.2.25.37.22.79-.16.97Z"/>
  <g>
    <path class="cls-2" d="M188.98,67.6c1.21-1.01,1.77-2.27,1.77-4.35V24.71h21.24v40.21c0,8.1-1.27,10.97-6.12,14.82-5.72,4.45-14.52,8.2-27.96,8.2s-22.21-3.74-27.93-8.2c-4.85-3.84-6.12-6.72-6.12-14.82V24.71h21.24v38.54c0,2.07.57,3.34,1.77,4.35,2.55,1.97,5.92,3.64,11.04,3.64s8.49-1.67,11.07-3.64Z"/>
    <path class="cls-2" d="M219.02,85.47v-16.19c9.3,1.31,20.48,1.97,27.1,1.97s9.97-.2,11.64-.66c1.11-.3,1.47-.6,1.47-1.11,0-.7-2.75-1.47-7.6-3.05l-17.6-5.76c-6.12-2.07-10.17-4.55-12.65-7.2-2.27-2.38-3.24-4.95-3.24-7.53v-6.66c0-4.65.72-10.47,6.72-12.68,5.61-2.07,15.89-2.88,27.56-2.88,8.76,0,17.36.57,24.09,1.97v16.19c-8.49-1.47-18.16-1.97-26.77-1.97-5.25,0-8,.2-9.4.7-.87.2-1.17.57-1.17,1.07,0,.6,1.87,1.21,5.52,2.38l19.27,6.42c6.32,2.07,10.58,4.45,13.15,6.92,2.37,2.27,3.34,4.45,3.34,6.99v7.4c0,5.92-3.22,11.62-9.35,13.81-5.53,1.97-15.64,1.85-25.21,1.85-10.27,0-19.87-.5-26.9-2h0Z"/>
    <path class="cls-2" d="M285.75,86.47V24.71h21.24v61.76h-21.24Z"/>
    <path class="cls-2" d="M336.07,86.47h-21.24V24.71h20.28l30.21,33.12V24.71h21.24v61.76h-20.24l-30.24-33.09v33.09h-.01Z"/>
    <path class="cls-2" d="M440.04,76.6h-24.89l-3.24,9.87h-21.85l20.84-61.76h33.59l20.84,61.76h-22.02l-3.28-9.87ZM420.3,60.78h14.62l-5.92-18.37h-2.78l-5.92,18.37h-.01Z"/>
  </g>
  <path class="cls-1" d="M28.74,109.47c-.1,16.19,7.96,30.84,20.55,39.61.28.19.21.62-.13.7-6.07,1.44-12.21,1.99-17.55,2.12-.3,0-.59-.12-.8-.35-2.12-2.33-4.05-4.81-5.79-7.44-6.63-9.93-10.48-21.85-10.48-34.65,0-18.44,11.73-35.72,27.07-56.38.62-.83,1.25-1.68,1.86-2.53.4-.54,1.2-.58,1.63-.06.88,1.03,1.79,2.09,2.71,3.18l.19.24c1.67,1.93,3.42,3.97,5.2,6.05.31.36.34.89.07,1.28-7.18,10.13-24.42,30.64-24.53,48.21v.02Z"/>
</svg>