<svg width="641" height="172" viewBox="0 0 641 172" fill="none" xmlns="http://www.w3.org/2000/svg">
<path d="M215.74 62.6653C217.211 61.4466 217.883 59.9127 217.883 57.3913V10.6602H243.644V59.4084C243.644 69.2211 242.11 72.7092 236.227 77.3739C229.293 82.774 218.619 87.3126 202.313 87.3126C186.008 87.3126 175.397 82.774 168.442 77.3739C162.558 72.7092 161.024 69.2211 161.024 59.4084V10.6602H186.785V57.3913C186.785 59.9127 187.479 61.4466 188.929 62.6653C192.017 65.0607 196.094 67.0779 202.313 67.0779C208.533 67.0779 212.609 65.0607 215.74 62.6653Z" fill="#1C4235"/>
<path d="M252.155 84.3283V64.7029C263.438 66.2788 276.991 67.0983 285.018 67.0983C293.044 67.0983 297.1 66.8462 299.138 66.2999C300.483 65.9426 300.924 65.5644 300.924 64.9551C300.924 64.0936 297.583 63.169 291.721 61.2569L270.372 54.2809C262.955 51.7594 258.038 48.7757 255.033 45.5608C252.281 42.6822 251.104 39.5513 251.104 36.4415V28.3729C251.104 22.7416 251.987 15.6815 259.257 12.9919C266.044 10.4705 278.525 9.50391 292.666 9.50391C303.298 9.50391 313.72 10.1973 321.873 11.8993V31.5247C311.577 29.7386 299.852 29.1293 289.43 29.1293C283.064 29.1293 279.723 29.3814 278.042 29.9908C276.991 30.2429 276.634 30.6842 276.634 31.2935C276.634 32.029 278.903 32.7644 283.337 34.1722L306.702 41.9467C314.372 44.4682 319.52 47.3469 322.651 50.3306C325.529 53.0832 326.706 55.7307 326.706 58.8195V67.7917C326.706 74.9569 322.798 81.8909 315.38 84.5384C308.677 86.9338 296.427 86.7867 284.829 86.7867C272.368 86.7867 260.728 86.1774 252.218 84.3493L252.155 84.3283Z" fill="#1C4235"/>
<path d="M333.051 85.5476V10.6602H358.812V85.5476H333.051Z" fill="#1C4235"/>
<path d="M394.05 85.5476H368.289V10.6602H392.873L429.497 50.8145V10.6602H455.258V85.5476H430.716L394.05 45.4353V85.5476Z" fill="#1C4235"/>
<path d="M520.101 73.5706H489.928L485.998 85.5476H459.502L484.759 10.6602H525.48L550.737 85.5476H524.051L520.08 73.5706H520.101ZM496.189 54.3865H513.924L506.758 32.1136H503.396L496.231 54.3865H496.189Z" fill="#1C4235"/>
<path d="M170.102 115.448V130.093H193.824V138.393H170.102V160.456H161.024V107.043H196.682L196.577 115.469H170.102V115.448Z" fill="#2CD1B1"/>
<path d="M229.272 152.492C233.432 152.492 236.731 151.085 239.169 148.227C241.606 145.39 242.825 141.524 242.825 136.649V107.043H251.902V136.964C251.902 144.55 249.822 150.433 245.661 154.657C241.501 158.88 236.038 161.002 229.251 161.002C222.464 161.002 217.001 158.88 212.84 154.657C208.68 150.433 206.6 144.55 206.6 136.964V107.043H215.572V136.649C215.572 141.587 216.812 145.453 219.291 148.227C221.686 151.064 225.027 152.492 229.251 152.492H229.272Z" fill="#2CD1B1"/>
<path d="M306.281 107.043H315.253V160.456H305.525L275.225 121.457V160.456H266.148V107.043H275.225L306.281 146.924V107.043Z" fill="#2CD1B1"/>
<path d="M348.496 107.043C358.035 107.043 365.41 109.354 370.579 113.977C375.748 118.6 378.333 125.092 378.333 133.476C378.333 141.86 375.79 148.626 370.684 153.354C365.578 158.082 357.951 160.456 347.823 160.456H330.11V107.043H348.474H348.496ZM348.18 115.343H339.208V151.946H349.168C355.745 151.946 360.725 150.391 364.15 147.302C367.575 144.214 369.298 139.675 369.298 133.707C369.298 121.478 362.259 115.364 348.201 115.364L348.18 115.343Z" fill="#2CD1B1"/>
<path d="M397.496 148.332L392.138 160.456H382.514L406.132 107.043H415.755L439.268 160.456H429.645L424.286 148.332H397.496ZM420.693 139.927L410.965 117.969L401.236 139.927H420.714H420.693Z" fill="#2CD1B1"/>
<path d="M486.209 145.724L492.009 151.629C486.461 157.975 479.611 161.126 471.438 161.126C463.264 161.126 456.624 158.521 451.245 153.31C445.887 148.099 443.197 141.543 443.197 133.6C443.197 125.658 445.929 118.934 451.413 113.66C456.876 108.386 463.768 105.738 472.089 105.738C480.41 105.738 487.155 108.806 492.765 114.921L487.071 121.14C484.528 118.661 482.112 116.959 479.843 116.013C477.594 115.068 474.926 114.605 471.858 114.605C466.395 114.605 461.814 116.349 458.137 119.837C454.46 123.325 452.611 127.78 452.611 133.159C452.611 138.538 454.439 142.993 458.074 146.712C461.73 150.431 466.059 152.28 471.08 152.28C474.148 152.28 476.775 151.776 479.023 150.746C481.25 149.717 483.625 148.057 486.188 145.724H486.209Z" fill="#2CD1B1"/>
<path d="M503.04 107.043H512.117V160.456H503.04V107.043Z" fill="#2CD1B1"/>
<path d="M551.62 161.022C543.593 161.022 536.89 158.396 531.49 153.101C526.09 147.827 523.4 141.25 523.4 133.391C523.4 125.533 526.09 118.956 531.49 113.682C536.89 108.408 543.593 105.76 551.62 105.76C559.646 105.76 566.349 108.408 571.749 113.682C577.15 118.956 579.839 125.533 579.839 133.391C579.839 141.25 577.108 147.806 571.623 153.059C566.16 158.375 559.478 161.043 551.599 161.043L551.62 161.022ZM551.62 113.913C546.304 113.913 541.807 115.804 538.172 119.607C534.516 123.39 532.709 127.991 532.709 133.37C532.709 138.75 534.537 143.33 538.172 147.07C541.828 150.832 546.304 152.702 551.62 152.702C556.936 152.702 561.432 150.832 565.068 147.07C568.724 143.309 570.531 138.75 570.531 133.37C570.531 127.991 568.703 123.39 565.068 119.607C561.411 115.825 556.936 113.913 551.62 113.913ZM553.028 102.567H545.148L553.238 91.5352L562.315 95.2543L553.028 102.567Z" fill="#2CD1B1"/>
<path d="M631.34 107.043H640.313V160.456H630.584L600.284 121.457V160.456H591.207V107.043H600.284L631.34 146.924V107.043Z" fill="#2CD1B1"/>
<path d="M139.234 148.333C137.952 148.9 135.62 149.951 132.573 151.233C130.514 152.136 127.993 153.04 125.219 154.132C120.701 155.813 115.217 157.494 109.481 159.091C100.551 161.319 90.5699 163.105 80.1689 163.336C79.2864 163.336 78.7821 164.323 79.3074 165.059L81.5557 168.126C81.7448 168.4 81.9339 168.715 81.9339 169.282C81.9339 170.333 81.0934 171.215 79.9377 171.215H63.254C61.3419 171.215 60.8376 168.589 62.6027 167.853C69.2845 165.017 75.3781 160.877 80.6101 155.582C91.2843 144.908 97.3778 130.178 97.3778 115.176C97.3778 90.5915 71.6799 60.8382 52.895 39.1116L52.7269 38.9225C51.046 36.9053 49.407 34.9932 47.8101 33.1652C47.3268 32.5978 47.3058 31.7994 47.7471 31.211L70.1881 0.260086C70.4612 -0.0971217 70.9445 -0.0761095 71.1546 0.260086L121.29 69.1591C121.5 69.4742 121.458 70.0626 121.017 70.3147C119.02 71.2182 113.851 73.5296 107.022 75.4207C106.791 75.4837 106.56 75.5468 106.56 75.5468C105.762 75.8199 105.468 76.8285 105.468 77.2277C105.468 77.5009 105.531 78.5095 106.707 79.0978C108.956 80.1274 110.952 81.6823 112.444 83.7415C112.885 84.2038 135.914 115.932 135.914 115.932C136.187 116.247 136.061 116.794 135.599 117.025C133.939 118.033 125.933 121.122 121.332 122.257C120.575 122.509 120.113 123.392 120.113 124.001C120.113 124.61 120.428 125.43 121.332 125.871C123.538 126.901 125.198 128.056 126.816 129.926C126.816 129.926 137.07 144.004 139.402 147.156C139.717 147.619 139.675 148.102 139.213 148.333H139.234Z" fill="#1C4235"/>
<path d="M86.7253 115.196C86.7253 127.383 81.7454 139.36 73.0464 148.059C66.8268 154.384 59.0733 158.649 50.5633 160.54C50.1431 160.645 49.8699 160.708 49.5127 160.729C47.8948 160.876 46.3819 160.162 45.3943 158.817L4.25246 102.168C2.19327 99.3526 1.731 95.7385 2.88667 92.5657C3.20185 91.6621 3.66412 90.8216 4.23145 90.0232L5.36611 88.4473C5.45016 88.3212 5.57623 88.2371 5.68129 88.1531C6.18559 87.8169 6.92101 87.9009 7.29923 88.4473L33.1652 124.042C34.6991 126.164 37.872 126.143 39.3848 124.042V124C40.3724 122.655 40.3724 120.827 39.4059 119.503L15.1788 86.241C12.9935 83.2152 12.7624 79.2859 14.4644 76.0501C14.6745 75.6718 14.8846 75.2936 15.1578 74.9574L16.5656 72.9613C16.6917 72.7932 16.8388 72.6671 17.0069 72.6041C17.5112 72.3519 18.1415 72.478 18.4987 72.9613L44.3858 108.472C45.8566 110.489 48.6302 110.825 50.3532 108.997C51.0466 108.241 51.4248 107.274 51.4248 106.329C51.4248 105.53 51.1727 104.732 50.6894 104.08L26.4834 70.839C24.2981 67.8553 24.0459 63.947 25.6639 60.7112C25.874 60.2699 26.1262 59.8497 26.4203 59.4294L27.8492 57.4543C27.9752 57.2862 28.1223 57.1811 28.2904 57.0971C28.7737 56.8239 29.4251 56.971 29.7823 57.4543L55.7533 93.091C57.2872 95.1922 60.4181 95.1922 61.9519 93.091C62.4562 92.4186 62.6874 91.6201 62.6874 90.8216C62.6874 90.0232 62.4562 89.2457 61.9519 88.5733L38.1031 55.8363C35.7287 52.5795 35.4556 48.293 37.2626 44.7839C37.4938 44.3217 37.7669 43.8804 38.0611 43.4602C38.0611 43.4602 38.9016 42.4096 39.5529 41.6111C39.9102 41.1488 40.6246 41.1488 41.0028 41.5901C42.1795 42.9769 43.3772 44.3847 44.6169 45.8345L44.848 46.1287C62.5193 66.5736 86.7253 94.5828 86.7253 115.217V115.196Z" fill="#2CD1B1"/>
<path d="M37.2623 161.593C37.2623 161.593 37.1573 161.782 37.0942 161.867C36.8421 162.182 36.4218 162.329 35.9806 162.224C34.2576 161.825 32.5766 161.362 30.9166 160.795C30.8326 160.774 30.7275 160.732 30.6435 160.69C29.2777 160.207 27.9539 159.639 26.6932 158.988C13.3925 152.495 4.18914 142.031 0.0707553 126.881C-0.26544 125.663 0.638084 124.465 1.89882 124.465H3.32764C7.61413 124.465 11.4804 127.007 13.3715 130.874C15.956 136.19 19.6961 140.833 24.2348 144.447C24.8441 144.91 26.0208 145.75 26.5671 146.107C26.7772 146.254 26.9874 146.423 27.1345 146.633L37.1573 160.375C37.4514 160.774 37.4514 161.215 37.2623 161.572V161.593Z" fill="#2CD1B1"/>
</svg>
